<?xml version="1.0" encoding="UTF-8"?>
<!DOCTYPE svg PUBLIC "-//W3C//DTD SVG 1.1//EN" "http://www.w3.org/Graphics/SVG/1.1/DTD/svg11.dtd">
<svg xmlns="http://www.w3.org/2000/svg" version="1.1" width="1600px" height="900px" style="shape-rendering:geometricPrecision; text-rendering:geometricPrecision; image-rendering:optimizeQuality; fill-rule:evenodd; clip-rule:evenodd" xmlns:xlink="http://www.w3.org/1999/xlink">
<g><path style="opacity:1" fill="#0301c7" d="M 446.5,560.5 C 448.462,555.243 450.962,550.243 454,545.5C 455.803,540.59 457.303,535.59 458.5,530.5C 456.886,529.149 455.886,526.815 455.5,523.5C 455.931,522.707 456.265,521.873 456.5,521C 455.782,517.539 455.282,514.039 455,510.5C 453.372,509.181 453.539,507.848 455.5,506.5C 454.289,505.28 454.289,504.113 455.5,503C 454.572,502.612 453.905,501.945 453.5,501C 454.693,497.986 455.359,494.819 455.5,491.5C 455.643,480.676 453.977,470.009 450.5,459.5C 449.5,459.5 448.5,459.5 447.5,459.5C 447.33,458.178 447.663,457.011 448.5,456C 445.057,455.779 444.724,454.779 447.5,453C 445.096,452.492 444.429,451.325 445.5,449.5C 442.758,447.103 441.758,444.27 442.5,441C 440.842,439.376 439.175,437.709 437.5,436C 437.833,435.667 438.167,435.333 438.5,435C 437.039,433.649 435.706,432.149 434.5,430.5C 434.709,429.914 435.043,429.414 435.5,429C 433.671,428.727 432.171,427.893 431,426.5C 428.06,419.726 423.227,414.726 416.5,411.5C 417.833,410.167 417.833,408.833 416.5,407.5C 411.316,404.163 408.649,399.33 408.5,393C 412.104,384.816 411.771,376.983 407.5,369.5C 407.709,368.914 408.043,368.414 408.5,368C 406.422,362.991 404.588,357.824 403,352.5C 400.109,349.08 397.609,345.413 395.5,341.5C 394.765,336.522 392.765,332.022 389.5,328C 388.552,327.517 387.552,327.351 386.5,327.5C 385.005,323.162 382.838,319.162 380,315.5C 373.379,308.09 366.213,301.257 358.5,295C 349.784,291.163 341.117,286.996 332.5,282.5C 331.713,281.758 331.047,280.925 330.5,280C 322.447,278.316 314.78,275.649 307.5,272C 273.2,263.352 238.867,263.352 204.5,272C 196.413,276.917 187.746,280.25 178.5,282C 172.289,285.937 165.956,289.604 159.5,293C 151.356,299.119 143.522,305.619 136,312.5C 130.346,320.498 124.679,328.498 119,336.5C 118.178,339.117 117.678,341.784 117.5,344.5C 114.323,346.774 112.323,349.941 111.5,354C 110.728,355.221 109.728,356.221 108.5,357C 108.877,360.634 107.877,364.134 105.5,367.5C 105.833,368.167 106.167,368.833 106.5,369.5C 104.586,372.572 103.252,375.905 102.5,379.5C 103.849,385.111 105.182,390.945 106.5,397C 104.133,401.244 100.966,404.744 97,407.5C 96.4054,408.899 96.5721,410.232 97.5,411.5C 96.2713,412.281 94.938,412.781 93.5,413C 89.6002,416.81 85.9336,420.81 82.5,425C 82.8333,425.333 83.1667,425.667 83.5,426C 82.2842,427.74 80.6175,428.74 78.5,429C 78.9574,429.414 79.2907,429.914 79.5,430.5C 77.0609,434.886 74.0609,439.386 70.5,444C 71.4885,446.23 70.8218,448.064 68.5,449.5C 69.5709,451.325 68.9042,452.492 66.5,453C 67.1667,453.667 67.8333,454.333 68.5,455C 66.992,456.507 65.6587,458.173 64.5,460C 63.8688,462.312 63.8688,464.812 64.5,467.5C 63.6872,468.814 62.6872,469.981 61.5,471C 62.2931,472.085 62.9598,473.252 63.5,474.5C 62.6198,476.429 61.6198,478.263 60.5,480C 59.4395,485.163 59.4395,490.496 60.5,496C 58.2849,497.943 58.2849,499.609 60.5,501C 60.4803,502.715 59.8136,504.548 58.5,506.5C 59.1853,516.004 59.852,525.504 60.5,535C 60,535.5 59.5,536 59,536.5C 57.9563,535.377 57.2896,534.044 57,532.5C 56.8333,533.333 56.6667,534.167 56.5,535C 58.273,540.152 59.9397,545.319 61.5,550.5C 58.8952,546.221 56.5619,541.721 54.5,537C 54.8333,536.667 55.1667,536.333 55.5,536C 52.913,529.035 50.5796,522.035 48.5,515C 48.5373,499.653 48.5373,484.32 48.5,469C 50.0275,465.862 51.0275,462.529 51.5,459C 51.3552,458.228 51.0219,457.561 50.5,457C 51.7122,454.577 53.0456,452.244 54.5,450C 54.1667,449.667 53.8333,449.333 53.5,449C 55.1303,446.171 56.4636,443.171 57.5,440C 57.1667,439.667 56.8333,439.333 56.5,439C 61.2434,431.672 65.5767,424.172 69.5,416.5C 76.7013,406.837 85.5347,399.17 96,393.5C 96.3712,380.873 97.5378,368.373 99.5,356C 105.076,333.184 117.076,313.184 135.5,296C 164.234,271.407 197.567,257.074 235.5,253C 275.908,248.731 313.908,256.064 349.5,275C 367.416,285.573 382.916,299.073 396,315.5C 411.552,339.102 418.885,365.102 418,393.5C 423.693,396.187 428.859,399.687 433.5,404C 452.531,423.911 463.031,447.744 465,475.5C 468.367,504.989 463.033,532.655 449,558.5C 448.292,559.381 447.458,560.047 446.5,560.5 Z M 308.5,356.5 C 308.5,357.167 308.833,357.5 309.5,357.5C 309.217,358.289 308.717,358.956 308,359.5C 307.26,358.251 307.427,357.251 308.5,356.5 Z"/></g>
<g><path style="opacity:1" fill="#0301f6" d="M 395.5,341.5 C 396.168,347.5 397.835,353.167 400.5,358.5C 398.52,362.133 396.52,361.966 394.5,358C 394.957,357.586 395.291,357.086 395.5,356.5C 392.924,352.623 389.758,349.289 386,346.5C 385.768,347.737 385.268,348.737 384.5,349.5C 383.761,345.914 382.094,342.914 379.5,340.5C 378.624,340.631 377.957,340.298 377.5,339.5C 372.474,330.309 366.14,322.142 358.5,315C 342.402,302.377 324.902,292.877 306,286.5C 301.245,286.106 296.412,284.939 291.5,283C 289.888,282.28 288.388,282.446 287,283.5C 284.112,281.816 280.946,280.816 277.5,280.5C 263.616,277.955 249.95,277.955 236.5,280.5C 213.612,283.5 191.945,291 171.5,303C 166.128,307.012 160.795,311.012 155.5,315C 153.973,317.69 151.973,319.857 149.5,321.5C 147.205,324.297 144.705,326.964 142,329.5C 139.637,334.25 136.803,338.583 133.5,342.5C 131.557,344.395 130.057,346.728 129,349.5C 128.692,348.692 128.192,348.025 127.5,347.5C 125.247,348.253 123.413,349.586 122,351.5C 120.473,355.249 118.306,358.582 115.5,361.5C 114.289,360.726 114.289,359.893 115.5,359C 114.692,358.692 114.025,358.192 113.5,357.5C 116.036,353.557 117.369,349.224 117.5,344.5C 117.678,341.784 118.178,339.117 119,336.5C 124.679,328.498 130.346,320.498 136,312.5C 143.522,305.619 151.356,299.119 159.5,293C 165.956,289.604 172.289,285.937 178.5,282C 187.746,280.25 196.413,276.917 204.5,272C 238.867,263.352 273.2,263.352 307.5,272C 314.78,275.649 322.447,278.316 330.5,280C 331.047,280.925 331.713,281.758 332.5,282.5C 341.117,286.996 349.784,291.163 358.5,295C 366.213,301.257 373.379,308.09 380,315.5C 382.838,319.162 385.005,323.162 386.5,327.5C 387.552,327.351 388.552,327.517 389.5,328C 392.765,332.022 394.765,336.522 395.5,341.5 Z M 308.5,356.5 C 308.5,357.167 308.833,357.5 309.5,357.5C 309.217,358.289 308.717,358.956 308,359.5C 307.26,358.251 307.427,357.251 308.5,356.5 Z"/></g>
<g><path style="opacity:0.369" fill="#2513a9" d="M 277.5,280.5 C 263.476,279.174 249.81,279.174 236.5,280.5C 249.95,277.955 263.616,277.955 277.5,280.5 Z"/></g>
<g><path style="opacity:0.02" fill="#514b7f" d="M 149.5,321.5 C 150.833,322.167 150.833,322.167 149.5,321.5 Z"/></g>
<g><path style="opacity:0.02" fill="#8b776f" d="M 256.5,350.5 C 256.5,351.167 256.167,351.5 255.5,351.5C 255.167,351.5 254.833,351.5 254.5,351.5C 253.833,351.5 253.5,351.167 253.5,350.5C 253.167,349.167 252.833,349.167 252.5,350.5C 252.565,350.938 252.399,351.272 252,351.5C 251.292,350.619 250.458,349.953 249.5,349.5C 249.532,347.433 250.532,346.1 252.5,345.5C 254.58,346.579 255.913,348.245 256.5,350.5 Z"/></g>
<g><path style="opacity:0.059" fill="#a08b66" d="M 310.5,353.5 C 309.833,353.5 309.5,353.833 309.5,354.5C 307.025,354.253 307.025,353.587 309.5,352.5C 310.107,352.624 310.44,352.957 310.5,353.5 Z"/></g>
<g><path style="opacity:0.059" fill="#a99462" d="M 310.5,354.5 C 310.5,354.167 310.5,353.833 310.5,353.5C 311.363,352.537 312.03,352.537 312.5,353.5C 312.043,354.298 311.376,354.631 310.5,354.5 Z"/></g>
<g><path style="opacity:0.02" fill="#816e72" d="M 309.5,354.5 C 309.833,354.5 310.167,354.5 310.5,354.5C 311.463,355.363 311.463,356.03 310.5,356.5C 309.702,356.043 309.369,355.376 309.5,354.5 Z"/></g>
<g><path style="opacity:0.02" fill="#887470" d="M 308.5,356.5 C 307.427,357.251 307.26,358.251 308,359.5C 308.717,358.956 309.217,358.289 309.5,357.5C 310.492,357.328 311.158,357.662 311.5,358.5C 310.662,358.842 310.328,359.508 310.5,360.5C 309.833,360.5 309.5,360.833 309.5,361.5C 309.167,361.5 308.833,361.5 308.5,361.5C 308.5,360.833 308.167,360.5 307.5,360.5C 307.167,360.5 306.833,360.5 306.5,360.5C 305.732,361.263 305.232,362.263 305,363.5C 304.536,362.906 304.369,362.239 304.5,361.5C 304.892,359.821 305.392,358.154 306,356.5C 306.977,355.226 307.811,355.226 308.5,356.5 Z"/></g>
<g><path style="opacity:0.02" fill="#786675" d="M 313.5,358.5 C 313.167,358.5 312.833,358.5 312.5,358.5C 312.202,355.664 312.869,355.164 314.5,357C 313.944,357.383 313.611,357.883 313.5,358.5 Z"/></g>
<g><path style="opacity:1" fill="#0000ec" d="M 133.5,342.5 C 132.009,347.472 130.009,352.139 127.5,356.5C 126.351,356.791 125.684,357.624 125.5,359C 124.923,361.137 124.59,363.304 124.5,365.5C 123.732,364.737 123.232,363.737 123,362.5C 119.431,365.059 117.598,368.225 117.5,372C 116.083,374.983 115.25,378.15 115,381.5C 114.333,447.5 114.333,513.5 115,579.5C 117.705,582.036 120.205,584.703 122.5,587.5C 122.318,589.591 122.652,591.591 123.5,593.5C 122.833,593.833 122.167,594.167 121.5,594.5C 114.328,593.891 107.328,592.558 100.5,590.5C 99.8826,590.611 99.3826,590.944 99,591.5C 87.4198,584.086 77.2531,575.086 68.5,564.5C 65.2824,560.28 62.949,555.614 61.5,550.5C 59.9397,545.319 58.273,540.152 56.5,535C 56.6667,534.167 56.8333,533.333 57,532.5C 57.2896,534.044 57.9563,535.377 59,536.5C 59.5,536 60,535.5 60.5,535C 59.852,525.504 59.1853,516.004 58.5,506.5C 59.8136,504.548 60.4803,502.715 60.5,501C 58.2849,499.609 58.2849,497.943 60.5,496C 59.4395,490.496 59.4395,485.163 60.5,480C 61.6198,478.263 62.6198,476.429 63.5,474.5C 62.9598,473.252 62.2931,472.085 61.5,471C 62.6872,469.981 63.6872,468.814 64.5,467.5C 63.8688,464.812 63.8688,462.312 64.5,460C 65.6587,458.173 66.992,456.507 68.5,455C 67.8333,454.333 67.1667,453.667 66.5,453C 68.9042,452.492 69.5709,451.325 68.5,449.5C 70.8218,448.064 71.4885,446.23 70.5,444C 74.0609,439.386 77.0609,434.886 79.5,430.5C 79.2907,429.914 78.9574,429.414 78.5,429C 80.6175,428.74 82.2842,427.74 83.5,426C 83.1667,425.667 82.8333,425.333 82.5,425C 85.9336,420.81 89.6002,416.81 93.5,413C 94.938,412.781 96.2713,412.281 97.5,411.5C 96.5721,410.232 96.4054,408.899 97,407.5C 100.966,404.744 104.133,401.244 106.5,397C 105.182,390.945 103.849,385.111 102.5,379.5C 103.252,375.905 104.586,372.572 106.5,369.5C 106.167,368.833 105.833,368.167 105.5,367.5C 107.877,364.134 108.877,360.634 108.5,357C 109.728,356.221 110.728,355.221 111.5,354C 112.323,349.941 114.323,346.774 117.5,344.5C 117.369,349.224 116.036,353.557 113.5,357.5C 114.025,358.192 114.692,358.692 115.5,359C 114.289,359.893 114.289,360.726 115.5,361.5C 118.306,358.582 120.473,355.249 122,351.5C 123.413,349.586 125.247,348.253 127.5,347.5C 128.192,348.025 128.692,348.692 129,349.5C 130.057,346.728 131.557,344.395 133.5,342.5 Z"/></g>
<g><path style="opacity:0.02" fill="#97826a" d="M 311.5,358.5 C 311.833,358.5 312.167,358.5 312.5,358.5C 312.833,361.167 313.167,361.167 313.5,358.5C 315.074,360.102 315.741,362.102 315.5,364.5C 315.167,364.5 314.833,364.5 314.5,364.5C 314.5,363.833 314.167,363.5 313.5,363.5C 313.167,362.167 312.833,362.167 312.5,363.5C 312.167,363.5 311.833,363.5 311.5,363.5C 311.672,362.508 311.338,361.842 310.5,361.5C 310.5,361.167 310.5,360.833 310.5,360.5C 311.338,360.158 311.672,359.492 311.5,358.5 Z"/></g>
<g><path style="opacity:1" fill="#0000d1" d="M 124.5,365.5 C 123.748,368.747 123.248,372.081 123,375.5C 122.5,446.166 122.333,516.833 122.5,587.5C 120.205,584.703 117.705,582.036 115,579.5C 114.333,513.5 114.333,447.5 115,381.5C 115.25,378.15 116.083,374.983 117.5,372C 117.598,368.225 119.431,365.059 123,362.5C 123.232,363.737 123.732,364.737 124.5,365.5 Z"/></g>
<g><path style="opacity:1" fill="#0000d2" d="M 379.5,340.5 C 382.094,342.914 383.761,345.914 384.5,349.5C 385.251,351.713 386.418,353.713 388,355.5C 388.667,351.5 389.333,351.5 390,355.5C 390.414,355.043 390.914,354.709 391.5,354.5C 393.151,357.846 395.151,361.012 397.5,364C 397.167,364.333 396.833,364.667 396.5,365C 398.013,369.461 399.513,373.627 401,377.5C 401.599,385.207 401.432,392.707 400.5,400C 401.308,400.308 401.975,400.808 402.5,401.5C 401.671,460.126 401.171,518.793 401,577.5C 398.868,581.991 395.868,585.991 392,589.5C 391.79,591.058 391.29,592.391 390.5,593.5C 391.648,520.848 391.814,448.182 391,375.5C 390.667,372.5 390.333,369.5 390,366.5C 389.901,364.347 389.067,362.681 387.5,361.5C 384.825,354.47 382.158,347.47 379.5,340.5 Z"/></g>
<g><path style="opacity:1" fill="#0000ed" d="M 395.5,341.5 C 397.609,345.413 400.109,349.08 403,352.5C 404.588,357.824 406.422,362.991 408.5,368C 408.043,368.414 407.709,368.914 407.5,369.5C 411.771,376.983 412.104,384.816 408.5,393C 408.649,399.33 411.316,404.163 416.5,407.5C 417.833,408.833 417.833,410.167 416.5,411.5C 423.227,414.726 428.06,419.726 431,426.5C 432.171,427.893 433.671,428.727 435.5,429C 435.043,429.414 434.709,429.914 434.5,430.5C 435.706,432.149 437.039,433.649 438.5,435C 438.167,435.333 437.833,435.667 437.5,436C 439.175,437.709 440.842,439.376 442.5,441C 441.758,444.27 442.758,447.103 445.5,449.5C 444.429,451.325 445.096,452.492 447.5,453C 444.724,454.779 445.057,455.779 448.5,456C 447.663,457.011 447.33,458.178 447.5,459.5C 448.5,459.5 449.5,459.5 450.5,459.5C 453.977,470.009 455.643,480.676 455.5,491.5C 455.359,494.819 454.693,497.986 453.5,501C 453.905,501.945 454.572,502.612 455.5,503C 454.289,504.113 454.289,505.28 455.5,506.5C 453.539,507.848 453.372,509.181 455,510.5C 455.282,514.039 455.782,517.539 456.5,521C 456.265,521.873 455.931,522.707 455.5,523.5C 455.886,526.815 456.886,529.149 458.5,530.5C 457.303,535.59 455.803,540.59 454,545.5C 450.962,550.243 448.462,555.243 446.5,560.5C 445.277,563.274 443.777,565.941 442,568.5C 437.991,573.675 433.491,578.342 428.5,582.5C 422.862,585.227 417.695,588.561 413,592.5C 412.667,592.167 412.333,591.833 412,591.5C 408.056,593.361 403.889,594.361 399.5,594.5C 397.409,594.318 395.409,594.652 393.5,595.5C 392.261,595.058 391.261,594.391 390.5,593.5C 391.29,592.391 391.79,591.058 392,589.5C 395.868,585.991 398.868,581.991 401,577.5C 401.171,518.793 401.671,460.126 402.5,401.5C 401.975,400.808 401.308,400.308 400.5,400C 401.432,392.707 401.599,385.207 401,377.5C 399.513,373.627 398.013,369.461 396.5,365C 396.833,364.667 397.167,364.333 397.5,364C 395.151,361.012 393.151,357.846 391.5,354.5C 390.914,354.709 390.414,355.043 390,355.5C 389.333,351.5 388.667,351.5 388,355.5C 386.418,353.713 385.251,351.713 384.5,349.5C 385.268,348.737 385.768,347.737 386,346.5C 389.758,349.289 392.924,352.623 395.5,356.5C 395.291,357.086 394.957,357.586 394.5,358C 396.52,361.966 398.52,362.133 400.5,358.5C 397.835,353.167 396.168,347.5 395.5,341.5 Z"/></g>
<g><path style="opacity:0.286" fill="#0100a7" d="M 127.5,356.5 C 126.352,361.095 125.519,365.762 125,370.5C 124.5,445.833 124.333,521.166 124.5,596.5C 121.813,596.664 119.146,596.497 116.5,596C 110.856,594.764 105.523,592.931 100.5,590.5C 107.328,592.558 114.328,593.891 121.5,594.5C 122.167,594.167 122.833,593.833 123.5,593.5C 122.652,591.591 122.318,589.591 122.5,587.5C 122.333,516.833 122.5,446.166 123,375.5C 123.248,372.081 123.748,368.747 124.5,365.5C 124.59,363.304 124.923,361.137 125.5,359C 125.684,357.624 126.351,356.791 127.5,356.5 Z"/></g>
<g><path style="opacity:0.286" fill="#3a2891" d="M 900.5,377.5 C 901.478,389.086 901.811,400.753 901.5,412.5C 901.828,424.012 901.495,435.346 900.5,446.5C 900.167,446.5 899.833,446.5 899.5,446.5C 899.793,422.461 900.126,399.461 900.5,377.5 Z"/></g>
<g><path style="opacity:0.914" fill="#0301a6" d="M 387.5,361.5 C 389.067,362.681 389.901,364.347 390,366.5C 390.333,369.5 390.667,372.5 391,375.5C 391.814,448.182 391.648,520.848 390.5,593.5C 391.261,594.391 392.261,595.058 393.5,595.5C 395.409,594.652 397.409,594.318 399.5,594.5C 399.082,595.222 398.416,595.722 397.5,596C 394.854,596.497 392.187,596.664 389.5,596.5C 389.474,522.075 389.474,448.075 389.5,374.5C 389.674,372.307 389.007,370.473 387.5,369C 388.935,366.733 388.602,364.733 386.5,363C 387.056,362.617 387.389,362.117 387.5,361.5 Z"/></g>
<g><path style="opacity:0.991" fill="#0000ca" d="M 133.5,389.5 C 139.66,389.331 144.993,391.331 149.5,395.5C 150.5,413.154 150.833,430.821 150.5,448.5C 149.506,458.319 149.173,468.319 149.5,478.5C 149.5,494.833 149.5,511.167 149.5,527.5C 149.171,541.344 149.504,555.01 150.5,568.5C 154.891,583.401 149.724,592.734 135,596.5C 134.235,596.43 133.735,596.097 133.5,595.5C 133.5,526.833 133.5,458.167 133.5,389.5 Z"/></g>
<g><path style="opacity:0.991" fill="#0000ca" d="M 363.5,559.5 C 364.495,548.679 364.828,537.679 364.5,526.5C 364.5,512.167 364.5,497.833 364.5,483.5C 364.83,467.325 364.496,451.325 363.5,435.5C 363.167,422.15 363.501,408.817 364.5,395.5C 369.307,391.119 374.974,389.119 381.5,389.5C 381.5,458.5 381.5,527.5 381.5,596.5C 374.562,595.78 368.728,592.78 364,587.5C 363.5,578.173 363.334,568.839 363.5,559.5 Z"/></g>
<g><path style="opacity:0.2" fill="#3823a8" d="M 133.5,389.5 C 133.5,458.167 133.5,526.833 133.5,595.5C 132.733,594.828 132.066,593.995 131.5,593C 131.5,526.333 131.5,459.667 131.5,393C 132.085,391.698 132.751,390.531 133.5,389.5 Z"/></g>
<g><path style="opacity:0.425" fill="#f2e219" d="M 249.5,349.5 C 250.458,349.953 251.292,350.619 252,351.5C 252.399,351.272 252.565,350.938 252.5,350.5C 252.833,350.5 253.167,350.5 253.5,350.5C 253.5,351.167 253.833,351.5 254.5,351.5C 254.833,352.833 255.167,352.833 255.5,351.5C 256.167,351.5 256.5,351.167 256.5,350.5C 258.451,351.716 259.951,353.382 261,355.5C 266.367,363.888 271.367,372.555 276,381.5C 278.869,384.704 282.035,387.537 285.5,390C 288.588,390.847 291.421,390.347 294,388.5C 295.309,384.901 296.809,381.401 298.5,378C 298.167,377.667 297.833,377.333 297.5,377C 298.798,374.273 299.798,371.44 300.5,368.5C 301.906,368.027 302.573,367.027 302.5,365.5C 302.66,363.847 303.326,362.514 304.5,361.5C 304.369,362.239 304.536,362.906 305,363.5C 305.232,362.263 305.732,361.263 306.5,360.5C 306.833,364.5 307.167,364.5 307.5,360.5C 308.167,360.5 308.5,360.833 308.5,361.5C 308.833,364.167 309.167,364.167 309.5,361.5C 309.833,361.5 310.167,361.5 310.5,361.5C 310.328,362.492 310.662,363.158 311.5,363.5C 311.833,364.833 312.167,364.833 312.5,363.5C 312.833,363.5 313.167,363.5 313.5,363.5C 314.167,363.5 314.5,363.833 314.5,364.5C 314.833,364.5 315.167,364.5 315.5,364.5C 316.793,369.214 318.293,374.214 320,379.5C 321.073,387.49 322.073,395.49 323,403.5C 324.842,413.508 330.675,417.008 340.5,414C 350,419.5 357.5,427 363,436.5C 363.399,436.272 363.565,435.938 363.5,435.5C 364.496,451.325 364.83,467.325 364.5,483.5C 363.5,483.5 362.5,483.5 361.5,483.5C 361.423,487.146 360.423,490.479 358.5,493.5C 357.511,489.893 357.177,486.226 357.5,482.5C 356.933,469.819 356.099,457.153 355,444.5C 354.667,444.167 354.333,443.833 354,443.5C 352.411,452.454 351.245,461.454 350.5,470.5C 349.509,474.101 348.342,477.768 347,481.5C 345.82,479.14 344.653,476.807 343.5,474.5C 341.035,468.775 340.369,462.775 341.5,456.5C 340.311,446.494 339.144,436.494 338,426.5C 333.888,441.919 329.721,457.252 325.5,472.5C 324.956,476.673 323.79,480.673 322,484.5C 319.068,478.853 317.901,472.853 318.5,466.5C 316.075,438.096 312.908,409.763 309,381.5C 305.53,401.235 303.197,420.901 302,440.5C 301.151,447.894 299.984,455.227 298.5,462.5C 297.293,469.994 295.46,477.328 293,484.5C 291.438,475.705 289.938,467.038 288.5,458.5C 285.307,440.312 282.807,421.978 281,403.5C 280.751,402.376 280.251,401.376 279.5,400.5C 276.63,419.927 273.297,439.26 269.5,458.5C 267.81,468.344 265.477,478.011 262.5,487.5C 261.732,488.263 261.232,489.263 261,490.5C 260.83,480.658 260.33,470.991 259.5,461.5C 259.5,459.833 259.5,458.167 259.5,456.5C 258.561,424.91 257.728,393.577 257,362.5C 255.887,363.76 255.72,364.927 256.5,366C 255.833,366.333 255.167,366.667 254.5,367C 255.116,368.4 255.449,369.9 255.5,371.5C 251.311,404.87 246.978,438.203 242.5,471.5C 240.994,482.871 239.16,494.204 237,505.5C 235.647,493.324 233.814,481.324 231.5,469.5C 226.964,438.509 222.464,407.509 218,376.5C 216.429,388.902 214.929,401.068 213.5,413C 214.116,414.4 214.449,415.9 214.5,417.5C 212.297,430.068 211.297,442.735 211.5,455.5C 209.851,466.756 208.685,478.09 208,489.5C 205.163,485.158 202.997,480.491 201.5,475.5C 199.359,450.919 197.193,426.253 195,401.5C 195.105,412.385 194.271,423.218 192.5,434C 193.562,441.479 193.729,449.312 193,457.5C 192.5,458 192,458.5 191.5,459C 192.643,465.418 192.81,471.918 192,478.5C 191.283,479.044 190.783,479.711 190.5,480.5C 187.757,486.329 185.257,492.329 183,498.5C 181.764,487.705 180.597,477.038 179.5,466.5C 177.886,452.239 176.719,437.906 176,423.5C 172.708,442.685 170.375,462.352 169,482.5C 165.258,478.252 162.091,473.585 159.5,468.5C 158.177,478.325 158.177,487.992 159.5,497.5C 159.666,501.846 159.499,506.179 159,510.5C 156.417,499.467 153.25,488.8 149.5,478.5C 149.173,468.319 149.506,458.319 150.5,448.5C 150.541,450.745 151.375,451.412 153,450.5C 160.425,429.744 171.925,411.578 187.5,396C 190.667,393.5 193.833,391 197,388.5C 202.388,379.114 208.554,370.281 215.5,362C 217.044,360.813 218.711,360.48 220.5,361C 224.69,367.227 227.523,374.06 229,381.5C 230.019,382.687 231.186,383.687 232.5,384.5C 235.013,383.152 236.847,381.152 238,378.5C 242.059,368.464 245.892,358.797 249.5,349.5 Z"/></g>
<g><path style="opacity:1" fill="#fe7d01" d="M 231.5,469.5 C 229.743,468.708 228.409,467.375 227.5,465.5C 225.5,472.5 223.5,479.5 221.5,486.5C 218.736,475.249 216.403,463.916 214.5,452.5C 213.712,453.77 212.712,454.77 211.5,455.5C 211.297,442.735 212.297,430.068 214.5,417.5C 214.449,415.9 214.116,414.4 213.5,413C 214.929,401.068 216.429,388.902 218,376.5C 222.464,407.509 226.964,438.509 231.5,469.5 Z"/></g>
<g><path style="opacity:1" fill="#fe7b02" d="M 259.5,456.5 C 258.414,456.62 257.747,457.287 257.5,458.5C 254.792,468.047 252.292,477.714 250,487.5C 248.076,481.789 245.576,476.456 242.5,471.5C 246.978,438.203 251.311,404.87 255.5,371.5C 255.449,369.9 255.116,368.4 254.5,367C 255.167,366.667 255.833,366.333 256.5,366C 255.72,364.927 255.887,363.76 257,362.5C 257.728,393.577 258.561,424.91 259.5,456.5 Z"/></g>
<g><path style="opacity:0.02" fill="#514b7f" d="M 302.5,365.5 C 302.573,367.027 301.906,368.027 300.5,368.5C 300.427,366.973 301.094,365.973 302.5,365.5 Z"/></g>
<g><path style="opacity:1" fill="#fe7d01" d="M 318.5,466.5 C 317.849,465.909 317.182,465.243 316.5,464.5C 313.234,470.941 309.734,477.274 306,483.5C 303.905,475.597 302.238,467.597 301,459.5C 300.148,460.571 299.315,461.571 298.5,462.5C 299.984,455.227 301.151,447.894 302,440.5C 303.197,420.901 305.53,401.235 309,381.5C 312.908,409.763 316.075,438.096 318.5,466.5 Z"/></g>
<g><path style="opacity:1" fill="#0000ed" d="M 933.5,381.5 C 935.5,384.841 936.5,388.507 936.5,392.5C 936.666,399.508 936.5,406.508 936,413.5C 924.581,412.512 913.081,412.179 901.5,412.5C 901.811,400.753 901.478,389.086 900.5,377.5C 901.058,376.21 902.058,375.377 903.5,375C 912.299,374.091 920.965,374.758 929.5,377C 931.184,378.209 932.517,379.709 933.5,381.5 Z"/></g>
<g><path style="opacity:0.981" fill="#0501ba" d="M 1373.5,441.5 C 1372.78,441.918 1372.28,442.584 1372,443.5C 1371.94,438.652 1371.27,433.985 1370,429.5C 1359.8,430.368 1348.97,430.701 1337.5,430.5C 1337.66,432.857 1337.5,435.19 1337,437.5C 1336.83,431.984 1336.33,426.651 1335.5,421.5C 1335.59,416.757 1336.59,412.257 1338.5,408C 1338.17,407.667 1337.83,407.333 1337.5,407C 1340.33,404.173 1343.66,402.173 1347.5,401C 1352.82,400.317 1358.15,399.817 1363.5,399.5C 1366.62,399.435 1369.62,399.935 1372.5,401C 1373.49,414.421 1373.82,427.921 1373.5,441.5 Z"/></g>
<g><path style="opacity:1" fill="#fe7c01" d="M 288.5,458.5 C 287.503,458.47 286.836,458.97 286.5,460C 283.485,466.53 280.319,473.03 277,479.5C 274.635,472.325 272.135,465.325 269.5,458.5C 273.297,439.26 276.63,419.927 279.5,400.5C 280.251,401.376 280.751,402.376 281,403.5C 282.807,421.978 285.307,440.312 288.5,458.5 Z"/></g>
<g><path style="opacity:1" fill="#fe8002" d="M 201.5,475.5 C 200.883,475.389 200.383,475.056 200,474.5C 199.108,477.952 197.442,480.952 195,483.5C 193.871,481.859 192.371,480.859 190.5,480.5C 190.783,479.711 191.283,479.044 192,478.5C 192.81,471.918 192.643,465.418 191.5,459C 192,458.5 192.5,458 193,457.5C 193.729,449.312 193.562,441.479 192.5,434C 194.271,423.218 195.105,412.385 195,401.5C 197.193,426.253 199.359,450.919 201.5,475.5 Z"/></g>
<g><path style="opacity:1" fill="#0100eb" d="M 616.5,429.5 C 616.727,432.965 617.227,436.299 618,439.5C 616.916,438.335 616.083,437.002 615.5,435.5C 604.939,434.823 594.439,434.156 584,433.5C 583.586,433.957 583.086,434.291 582.5,434.5C 581.5,431.833 580.5,429.167 579.5,426.5C 578.893,426.624 578.56,426.957 578.5,427.5C 577.388,429.599 576.721,431.933 576.5,434.5C 566.584,434.819 556.75,434.486 547,433.5C 546.667,434.167 546.333,434.833 546,435.5C 546.625,430.106 547.792,424.772 549.5,419.5C 551.874,409.094 554.874,399.261 558.5,390C 573.497,388.024 588.497,388.024 603.5,390C 608.32,402.962 612.654,416.129 616.5,429.5 Z"/></g>
<g><path style="opacity:1" fill="#0902c3" d="M 1256.5,384.5 C 1266.05,383.596 1275.21,384.93 1284,388.5C 1287.49,398.911 1287.33,409.244 1283.5,419.5C 1280.02,420.91 1276.52,422.243 1273,423.5C 1266.45,423.28 1260.12,423.28 1254,423.5C 1251.52,421.922 1248.85,420.589 1246,419.5C 1244.83,416.65 1243.66,413.816 1242.5,411C 1242.83,405.34 1243.33,399.173 1244,392.5C 1244.31,391.234 1244.81,390.067 1245.5,389C 1249.26,387.436 1252.93,385.936 1256.5,384.5 Z"/></g>
<g><path style="opacity:1" fill="#fe7c02" d="M 343.5,474.5 C 339.581,477.075 335.915,480.075 332.5,483.5C 330.952,479.349 329.118,475.349 327,471.5C 326.617,472.056 326.117,472.389 325.5,472.5C 329.721,457.252 333.888,441.919 338,426.5C 339.144,436.494 340.311,446.494 341.5,456.5C 340.369,462.775 341.035,468.775 343.5,474.5 Z"/></g>
<g><path style="opacity:1" fill="#0000d8" d="M 936.5,392.5 C 937.627,411.212 937.793,429.879 937,448.5C 924.357,447.562 911.857,447.229 899.5,447.5C 900.167,447.5 900.5,447.167 900.5,446.5C 901.495,435.346 901.828,424.012 901.5,412.5C 913.081,412.179 924.581,412.512 936,413.5C 936.5,406.508 936.666,399.508 936.5,392.5 Z"/></g>
<g><path style="opacity:1" fill="#fe8102" d="M 179.5,466.5 C 178.883,466.389 178.383,466.056 178,465.5C 175.167,474.5 172.333,483.5 169.5,492.5C 169.167,492.833 168.833,493.167 168.5,493.5C 165.833,491.833 163.167,490.167 160.5,488.5C 159.516,491.428 159.183,494.428 159.5,497.5C 158.177,487.992 158.177,478.325 159.5,468.5C 162.091,473.585 165.258,478.252 169,482.5C 170.375,462.352 172.708,442.685 176,423.5C 176.719,437.906 177.886,452.239 179.5,466.5 Z"/></g>
<g><path style="opacity:0.995" fill="#0200b8" d="M 1073.5,466.5 C 1073.72,467.798 1073.05,469.131 1071.5,470.5C 1058.27,469.975 1045.1,469.641 1032,469.5C 1032.11,470.769 1031.94,471.769 1031.5,472.5C 1029.65,471.911 1027.81,471.244 1026,470.5C 1020.71,470.548 1015.38,470.548 1010,470.5C 1009.05,470.905 1008.39,471.572 1008,472.5C 1006.25,471.826 1004.58,471.493 1003,471.5C 994.567,474.193 986.233,477.193 978,480.5C 974.149,478.312 971.315,475.145 969.5,471C 969.833,470.667 970.167,470.333 970.5,470C 967.349,464.563 965.849,458.729 966,452.5C 985.974,444.471 1006.81,439.804 1028.5,438.5C 1043.52,438.785 1056.35,444.119 1067,454.5C 1069.97,458.118 1072.14,462.118 1073.5,466.5 Z"/></g>
<g><path style="opacity:0.999" fill="#0200a0" d="M 1335.5,421.5 C 1336.33,426.651 1336.83,431.984 1337,437.5C 1337.5,435.19 1337.66,432.857 1337.5,430.5C 1348.97,430.701 1359.8,430.368 1370,429.5C 1371.27,433.985 1371.94,438.652 1372,443.5C 1372.28,442.584 1372.78,441.918 1373.5,441.5C 1384.65,442.495 1395.99,442.828 1407.5,442.5C 1408.83,451.833 1408.83,461.167 1407.5,470.5C 1395.88,471.706 1384.55,471.706 1373.5,470.5C 1373.5,494.5 1373.5,518.5 1373.5,542.5C 1372.83,523.833 1372.17,505.167 1371.5,486.5C 1372.54,482.457 1372.54,478.623 1371.5,475C 1360.17,474.5 1348.84,474.333 1337.5,474.5C 1337.66,472.801 1337.49,471.134 1337,469.5C 1335.99,470.337 1334.82,470.67 1333.5,470.5C 1326.79,470.579 1320.29,470.579 1314,470.5C 1313.55,468.481 1312.72,466.648 1311.5,465C 1312.29,457.556 1312.96,450.056 1313.5,442.5C 1320.83,442.5 1328.17,442.5 1335.5,442.5C 1335.09,435.297 1335.09,428.297 1335.5,421.5 Z"/></g>
<g><path style="opacity:1" fill="#0200b0" d="M 1209.5,460.5 C 1187.31,461.235 1164.47,461.568 1141,461.5C 1133.83,461.333 1126.67,461.167 1119.5,461C 1118.94,460.617 1118.61,460.117 1118.5,459.5C 1130.37,445.653 1145.53,438.653 1164,438.5C 1178.25,438.767 1191.08,443.1 1202.5,451.5C 1205.26,454.252 1207.6,457.252 1209.5,460.5 Z"/></g>
<g><path style="opacity:1" fill="#0100a8" d="M 1287.5,457.5 C 1287.67,459.861 1288.01,462.194 1288.5,464.5C 1271.16,464.667 1253.83,464.5 1236.5,464C 1235.87,463.25 1235.37,462.416 1235,461.5C 1234.97,456.979 1234.8,452.645 1234.5,448.5C 1234.36,446.738 1234.69,445.071 1235.5,443.5C 1245.78,441.818 1256.11,441.318 1266.5,442C 1276.43,443.29 1283.43,448.457 1287.5,457.5 Z"/></g>
<g><path style="opacity:1" fill="#fe1500" d="M 231.5,469.5 C 233.814,481.324 235.647,493.324 237,505.5C 239.16,494.204 240.994,482.871 242.5,471.5C 245.576,476.456 248.076,481.789 250,487.5C 252.292,477.714 254.792,468.047 257.5,458.5C 257.747,457.287 258.414,456.62 259.5,456.5C 259.5,458.167 259.5,459.833 259.5,461.5C 259.168,471.855 259.501,482.188 260.5,492.5C 262.217,491.332 262.884,489.665 262.5,487.5C 265.477,478.011 267.81,468.344 269.5,458.5C 272.135,465.325 274.635,472.325 277,479.5C 280.319,473.03 283.485,466.53 286.5,460C 286.836,458.97 287.503,458.47 288.5,458.5C 289.938,467.038 291.438,475.705 293,484.5C 295.46,477.328 297.293,469.994 298.5,462.5C 299.315,461.571 300.148,460.571 301,459.5C 302.238,467.597 303.905,475.597 306,483.5C 309.734,477.274 313.234,470.941 316.5,464.5C 317.182,465.243 317.849,465.909 318.5,466.5C 317.901,472.853 319.068,478.853 322,484.5C 323.79,480.673 324.956,476.673 325.5,472.5C 326.117,472.389 326.617,472.056 327,471.5C 329.118,475.349 330.952,479.349 332.5,483.5C 335.915,480.075 339.581,477.075 343.5,474.5C 344.653,476.807 345.82,479.14 347,481.5C 348.342,477.768 349.509,474.101 350.5,470.5C 351.812,472.641 353.645,474.308 356,475.5C 356.186,478.036 356.686,480.369 357.5,482.5C 357.177,486.226 357.511,489.893 358.5,493.5C 360.423,490.479 361.423,487.146 361.5,483.5C 362.5,483.5 363.5,483.5 364.5,483.5C 364.5,497.833 364.5,512.167 364.5,526.5C 361.693,522.97 359.526,518.97 358,514.5C 357.505,516.473 357.338,518.473 357.5,520.5C 356.596,521.209 356.263,522.209 356.5,523.5C 353.763,523.599 351.096,523.265 348.5,522.5C 347.185,518.916 346.018,515.249 345,511.5C 344.16,514.202 343.327,516.868 342.5,519.5C 336.252,518.542 330.586,516.209 325.5,512.5C 325.657,511.127 325.49,509.793 325,508.5C 321.549,514.403 318.383,520.403 315.5,526.5C 314.018,521.705 312.851,516.705 312,511.5C 308.768,519.065 305.268,526.398 301.5,533.5C 299.573,525.651 297.74,517.651 296,509.5C 293.979,515.392 292.479,521.392 291.5,527.5C 287.443,522.41 283.61,517.077 280,511.5C 278.265,517.568 276.765,523.568 275.5,529.5C 274.016,524.747 273.182,519.747 273,514.5C 271.042,519.994 269.542,525.661 268.5,531.5C 265.561,528.542 262.895,525.209 260.5,521.5C 257.797,526.916 255.63,532.582 254,538.5C 252.758,540.859 251.258,542.859 249.5,544.5C 249.205,534.117 248.372,523.784 247,513.5C 244.475,518.574 242.642,523.907 241.5,529.5C 240.834,532.689 240.167,536.023 239.5,539.5C 238.007,531.036 236.007,522.702 233.5,514.5C 230.347,516.55 227.014,518.216 223.5,519.5C 222.199,512.699 220.365,506.033 218,499.5C 216.919,507.315 215.752,514.982 214.5,522.5C 210.379,516.978 206.212,511.312 202,505.5C 201.04,508.633 200.207,511.8 199.5,515C 199.164,516.03 198.497,516.53 197.5,516.5C 196.188,514.521 194.521,512.855 192.5,511.5C 191.503,518.468 191.17,525.468 191.5,532.5C 188.578,528.399 185.411,524.399 182,520.5C 181.722,521.416 181.222,522.082 180.5,522.5C 179.006,519.24 177.506,515.907 176,512.5C 175.501,518.157 175.334,523.824 175.5,529.5C 173.527,532.139 171.194,534.473 168.5,536.5C 168.448,533.654 167.448,531.32 165.5,529.5C 163.667,528.537 161.667,527.87 159.5,527.5C 156.824,527.837 154.157,528.17 151.5,528.5C 150.833,528.167 150.167,527.833 149.5,527.5C 149.5,511.167 149.5,494.833 149.5,478.5C 153.25,488.8 156.417,499.467 159,510.5C 159.499,506.179 159.666,501.846 159.5,497.5C 159.183,494.428 159.516,491.428 160.5,488.5C 163.167,490.167 165.833,491.833 168.5,493.5C 168.833,493.167 169.167,492.833 169.5,492.5C 172.333,483.5 175.167,474.5 178,465.5C 178.383,466.056 178.883,466.389 179.5,466.5C 180.597,477.038 181.764,487.705 183,498.5C 185.257,492.329 187.757,486.329 190.5,480.5C 192.371,480.859 193.871,481.859 195,483.5C 197.442,480.952 199.108,477.952 200,474.5C 200.383,475.056 200.883,475.389 201.5,475.5C 202.997,480.491 205.163,485.158 208,489.5C 208.685,478.09 209.851,466.756 211.5,455.5C 212.712,454.77 213.712,453.77 214.5,452.5C 216.403,463.916 218.736,475.249 221.5,486.5C 223.5,479.5 225.5,472.5 227.5,465.5C 228.409,467.375 229.743,468.708 231.5,469.5 Z"/></g>
<g><path style="opacity:1" fill="#fd8603" d="M 357.5,482.5 C 356.686,480.369 356.186,478.036 356,475.5C 353.645,474.308 351.812,472.641 350.5,470.5C 351.245,461.454 352.411,452.454 354,443.5C 354.333,443.833 354.667,444.167 355,444.5C 356.099,457.153 356.933,469.819 357.5,482.5 Z"/></g>
<g><path style="opacity:1" fill="#0100bf" d="M 933.5,381.5 C 936.42,384.057 937.92,387.39 938,391.5C 938.5,442.166 938.667,492.832 938.5,543.5C 937.549,542.081 937.216,540.415 937.5,538.5C 937.021,521.26 937.021,504.594 937.5,488.5C 925.833,488.5 914.167,488.5 902.5,488.5C 902.665,485.482 902.498,482.482 902,479.5C 901.617,478.944 901.117,478.611 900.5,478.5C 892.45,471.666 883.117,469.166 872.5,471C 865.309,474.915 860.643,480.749 858.5,488.5C 846.162,488.667 833.829,488.5 821.5,488C 820.944,487.617 820.611,487.117 820.5,486.5C 826.359,457.804 843.859,442.471 873,440.5C 882.412,440.28 891.245,442.28 899.5,446.5C 899.5,446.833 899.5,447.167 899.5,447.5C 911.857,447.229 924.357,447.562 937,448.5C 937.793,429.879 937.627,411.212 936.5,392.5C 936.5,388.507 935.5,384.841 933.5,381.5 Z"/></g>
<g><path style="opacity:1" fill="#0300a1" d="M 1118.5,459.5 C 1118.61,460.117 1118.94,460.617 1119.5,461C 1126.67,461.167 1133.83,461.333 1141,461.5C 1164.47,461.568 1187.31,461.235 1209.5,460.5C 1216.48,469.2 1218.98,479.2 1217,490.5C 1214.92,498.242 1209.92,502.909 1202,504.5C 1197.44,504.276 1192.77,504.276 1188,504.5C 1186.33,503.833 1184.67,503.167 1183,502.5C 1182.8,495.94 1182.13,489.273 1181,482.5C 1180.68,480.939 1179.85,479.772 1178.5,479C 1179.63,477.984 1179.3,477.317 1177.5,477C 1177.83,476.667 1178.17,476.333 1178.5,476C 1174.91,470.87 1169.91,468.37 1163.5,468.5C 1159.42,468.434 1155.75,469.434 1152.5,471.5C 1147.81,476.22 1144.81,481.887 1143.5,488.5C 1131.73,486.88 1119.73,485.88 1107.5,485.5C 1106.87,484.583 1106.54,483.583 1106.5,482.5C 1108.4,473.634 1112.4,465.968 1118.5,459.5 Z"/></g>
<g><path style="opacity:0.954" fill="#0100c9" d="M 712.5,454.5 C 712.859,456.766 712.192,458.599 710.5,460C 711.794,463.74 712.461,467.74 712.5,472C 712.638,476.344 712.138,480.511 711,484.5C 709.956,483.377 709.29,482.044 709,480.5C 708.641,483.544 707.974,483.878 707,481.5C 706.333,484.167 705.667,484.167 705,481.5C 704.026,483.878 703.359,483.544 703,480.5C 702.667,481.5 702.333,482.5 702,483.5C 700.256,482.964 698.423,482.63 696.5,482.5C 694.902,484.973 693.402,484.973 692,482.5C 691,482.833 690,483.167 689,483.5C 687.667,482.833 686.667,481.833 686,480.5C 685.333,483.167 684.667,483.167 684,480.5C 683,481.833 682,483.167 681,484.5C 680.667,483.833 680.333,483.167 680,482.5C 679.333,483.833 678.667,483.833 678,482.5C 677.667,483.833 677.333,485.167 677,486.5C 676.824,482.312 676.324,478.312 675.5,474.5C 675.784,472.585 675.451,470.919 674.5,469.5C 674.673,465.027 673.673,460.86 671.5,457C 671.833,456.667 672.167,456.333 672.5,456C 671.793,453.457 670.46,451.291 668.5,449.5C 678.568,441.541 689.902,439.041 702.5,442C 708.121,444.443 711.455,448.61 712.5,454.5 Z"/></g>
<g><path style="opacity:0.954" fill="#0000ca" d="M 787.5,442.5 C 788.919,443.451 790.585,443.784 792.5,443.5C 792.5,462.5 792.5,481.5 792.5,500.5C 791.671,492.343 791.171,484.01 791,475.5C 790.759,478.289 790.092,480.956 789,483.5C 788.309,481.109 787.309,481.109 786,483.5C 784.518,481.219 782.851,481.219 781,483.5C 779.691,481.109 778.691,481.109 778,483.5C 776.84,481.203 775.84,481.536 775,484.5C 773.863,483.636 772.53,482.636 771,481.5C 770.667,482.167 770.333,482.833 770,483.5C 769.333,482.167 768.667,480.833 768,479.5C 767.16,482.464 766.16,482.797 765,480.5C 764.026,482.878 763.359,482.544 763,479.5C 762.581,483.852 761.914,484.185 761,480.5C 760.333,483.167 759.667,483.167 759,480.5C 757.956,481.623 757.29,482.956 757,484.5C 756.815,471.122 756.315,457.788 755.5,444.5C 756.243,443.818 756.909,443.151 757.5,442.5C 767.641,441.23 777.641,441.23 787.5,442.5 Z"/></g>
<g><path style="opacity:0.999" fill="#0200d4" d="M 549.5,419.5 C 547.792,424.772 546.625,430.106 546,435.5C 546.333,434.833 546.667,434.167 547,433.5C 556.75,434.486 566.584,434.819 576.5,434.5C 576.721,431.933 577.388,429.599 578.5,427.5C 575.103,444.421 570.77,461.087 565.5,477.5C 564.778,477.918 564.278,478.584 564,479.5C 553,478.167 542,478.167 531,479.5C 531.696,475.215 532.529,470.881 533.5,466.5C 536.571,455.115 540.238,444.282 544.5,434C 544.167,433.667 543.833,433.333 543.5,433C 545.532,429.049 547.032,424.882 548,420.5C 548.383,419.944 548.883,419.611 549.5,419.5 Z"/></g>
<g><path style="opacity:0.999" fill="#0200d1" d="M 578.5,427.5 C 578.56,426.957 578.893,426.624 579.5,426.5C 580.5,429.167 581.5,431.833 582.5,434.5C 583.086,434.291 583.586,433.957 584,433.5C 594.439,434.156 604.939,434.823 615.5,435.5C 616.083,437.002 616.916,438.335 618,439.5C 617.227,436.299 616.727,432.965 616.5,429.5C 623.461,449.988 630.128,470.655 636.5,491.5C 636.698,493.575 636.865,495.575 637,497.5C 636.5,497 636,496.5 635.5,496C 629.667,495.833 623.833,495.667 618,495.5C 611.593,495.543 605.426,496.21 599.5,497.5C 598.046,496.48 597.713,495.313 598.5,494C 595.038,486.122 592.705,478.122 591.5,470C 587.23,455.737 582.896,441.57 578.5,427.5 Z"/></g>
<g><path style="opacity:0.998" fill="#010090" d="M 1467.5,482.5 C 1466.44,481.4 1465.61,480.066 1465,478.5C 1459.58,479.808 1453.91,480.475 1448,480.5C 1442.25,480.489 1436.59,480.156 1431,479.5C 1430.18,480.823 1429.02,481.489 1427.5,481.5C 1423.89,469.326 1420.89,456.993 1418.5,444.5C 1425.86,442.462 1433.36,441.128 1441,440.5C 1449.23,439.944 1455.23,443.277 1459,450.5C 1461.54,461.276 1464.37,471.943 1467.5,482.5 Z"/></g>
<g><path style="opacity:0.02" fill="#514b7f" d="M 1152.5,471.5 C 1153.83,472.167 1153.83,472.167 1152.5,471.5 Z"/></g>
<g><path style="opacity:0.999" fill="#010090" d="M 1542.5,479.5 C 1540.5,478.143 1539.33,478.81 1539,481.5C 1533,480.167 1527,480.167 1521,481.5C 1516.59,480.697 1512.09,480.197 1507.5,480C 1506.96,479.283 1506.29,478.783 1505.5,478.5C 1507.05,467.634 1509.72,456.8 1513.5,446C 1512.6,444.01 1513.43,442.843 1516,442.5C 1524.48,441.407 1532.98,441.24 1541.5,442C 1544.51,442.332 1547.34,443.166 1550,444.5C 1550.67,446.833 1550.67,449.167 1550,451.5C 1547.79,460.996 1545.29,470.329 1542.5,479.5 Z"/></g>
<g><path style="opacity:0.997" fill="#030099" d="M 1234.5,448.5 C 1234.8,452.645 1234.97,456.979 1235,461.5C 1235.37,462.416 1235.87,463.25 1236.5,464C 1253.83,464.5 1271.16,464.667 1288.5,464.5C 1288.01,462.194 1287.67,459.861 1287.5,457.5C 1288.96,460.203 1289.8,463.203 1290,466.5C 1290.83,506.002 1290.66,545.335 1289.5,584.5C 1289.83,553.995 1289.5,523.662 1288.5,493.5C 1288.19,491.09 1288.52,488.924 1289.5,487C 1276.66,487.084 1263.99,486.251 1251.5,484.5C 1251.27,473.777 1245.77,468.777 1235,469.5C 1235.01,465.805 1234.18,462.138 1232.5,458.5C 1232.6,454.91 1233.27,451.577 1234.5,448.5 Z"/></g>
<g><path style="opacity:0.957" fill="#fc8b05" d="M 259.5,461.5 C 260.33,470.991 260.83,480.658 261,490.5C 261.232,489.263 261.732,488.263 262.5,487.5C 262.884,489.665 262.217,491.332 260.5,492.5C 259.501,482.188 259.168,471.855 259.5,461.5 Z"/></g>
<g><path style="opacity:1" fill="#02007e" d="M 1467.5,482.5 C 1470.64,490.913 1472.97,499.58 1474.5,508.5C 1473.69,507.571 1472.85,506.571 1472,505.5C 1470.49,508.474 1468.83,508.807 1467,506.5C 1465,507.833 1463,507.833 1461,506.5C 1460.33,507.167 1459.67,507.833 1459,508.5C 1457.98,507.313 1456.81,506.313 1455.5,505.5C 1454.09,506.427 1452.59,507.427 1451,508.5C 1449.45,506.854 1447.78,506.521 1446,507.5C 1444.69,505.109 1443.69,505.109 1443,507.5C 1442.31,505.109 1441.31,505.109 1440,507.5C 1439.33,506.833 1438.67,506.167 1438,505.5C 1437.24,507.315 1436.41,508.981 1435.5,510.5C 1433.62,500.545 1430.96,490.878 1427.5,481.5C 1429.02,481.489 1430.18,480.823 1431,479.5C 1436.59,480.156 1442.25,480.489 1448,480.5C 1453.91,480.475 1459.58,479.808 1465,478.5C 1465.61,480.066 1466.44,481.4 1467.5,482.5 Z"/></g>
<g><path style="opacity:0.996" fill="#010091" d="M 1106.5,482.5 C 1106.54,483.583 1106.87,484.583 1107.5,485.5C 1119.73,485.88 1131.73,486.88 1143.5,488.5C 1141.81,499.074 1141.14,509.741 1141.5,520.5C 1140.76,520.631 1140.09,520.464 1139.5,520C 1140.63,515.921 1140.8,511.755 1140,507.5C 1139.5,509.473 1139.34,511.473 1139.5,513.5C 1127.08,512.866 1114.92,513.533 1103,515.5C 1102.35,513.765 1102.52,512.098 1103.5,510.5C 1103.14,509.478 1102.48,508.811 1101.5,508.5C 1101.55,499.324 1103.22,490.658 1106.5,482.5 Z"/></g>
<g><path style="opacity:0.97" fill="#0000b2" d="M 712.5,454.5 C 713.498,479.661 713.831,504.995 713.5,530.5C 712.645,525.923 712.145,520.589 712,514.5C 710.019,516.359 709.019,518.692 709,521.5C 708.333,516.167 707.667,516.167 707,521.5C 706.333,517.5 705.667,517.5 705,521.5C 704.333,517.5 703.667,517.5 703,521.5C 702.333,517.5 701.667,517.5 701,521.5C 700.333,516.167 699.667,516.167 699,521.5C 698.333,514.833 697.667,514.833 697,521.5C 696.667,520.167 696.333,518.833 696,517.5C 695.436,521.914 693.603,522.581 690.5,519.5C 689.459,521.991 688.626,521.991 688,519.5C 687.333,522.167 686.667,522.167 686,519.5C 685.333,522.167 684.667,522.167 684,519.5C 683.333,522.167 682.667,522.167 682,519.5C 681.667,520.167 681.333,520.833 681,521.5C 679.903,519.947 678.57,518.614 677,517.5C 676.667,525.167 676.333,532.833 676,540.5C 675.5,518.503 675.333,496.503 675.5,474.5C 676.324,478.312 676.824,482.312 677,486.5C 677.333,485.167 677.667,483.833 678,482.5C 678.667,483.833 679.333,483.833 680,482.5C 680.333,483.167 680.667,483.833 681,484.5C 682,483.167 683,481.833 684,480.5C 684.667,483.167 685.333,483.167 686,480.5C 686.667,481.833 687.667,482.833 689,483.5C 690,483.167 691,482.833 692,482.5C 693.402,484.973 694.902,484.973 696.5,482.5C 698.423,482.63 700.256,482.964 702,483.5C 702.333,482.5 702.667,481.5 703,480.5C 703.359,483.544 704.026,483.878 705,481.5C 705.667,484.167 706.333,484.167 707,481.5C 707.974,483.878 708.641,483.544 709,480.5C 709.29,482.044 709.956,483.377 711,484.5C 712.138,480.511 712.638,476.344 712.5,472C 712.461,467.74 711.794,463.74 710.5,460C 712.192,458.599 712.859,456.766 712.5,454.5 Z"/></g>
<g><path style="opacity:0.97" fill="#0200b2" d="M 757.5,442.5 C 756.909,443.151 756.243,443.818 755.5,444.5C 756.315,457.788 756.815,471.122 757,484.5C 757.29,482.956 757.956,481.623 759,480.5C 759.667,483.167 760.333,483.167 761,480.5C 761.914,484.185 762.581,483.852 763,479.5C 763.359,482.544 764.026,482.878 765,480.5C 766.16,482.797 767.16,482.464 768,479.5C 768.667,480.833 769.333,482.167 770,483.5C 770.333,482.833 770.667,482.167 771,481.5C 772.53,482.636 773.863,483.636 775,484.5C 775.84,481.536 776.84,481.203 778,483.5C 778.691,481.109 779.691,481.109 781,483.5C 782.851,481.219 784.518,481.219 786,483.5C 787.309,481.109 788.309,481.109 789,483.5C 790.092,480.956 790.759,478.289 791,475.5C 791.171,484.01 791.671,492.343 792.5,500.5C 792.667,511.838 792.5,523.172 792,534.5C 791.667,528.167 791.333,521.833 791,515.5C 790.667,517.167 790.333,518.833 790,520.5C 789.086,516.815 788.419,517.148 788,521.5C 787.581,517.148 786.914,516.815 786,520.5C 785.333,516.5 784.667,516.5 784,520.5C 783.333,516.5 782.667,516.5 782,520.5C 781.086,516.815 780.419,517.148 780,521.5C 779.581,517.148 778.914,516.815 778,520.5C 777.333,516.5 776.667,516.5 776,520.5C 775.333,516.5 774.667,516.5 774,520.5C 773.086,516.815 772.419,517.148 772,521.5C 771.581,517.148 770.914,516.815 770,520.5C 769.333,515.167 768.667,515.167 768,520.5C 767.333,516.5 766.667,516.5 766,520.5C 765.086,516.815 764.419,517.148 764,521.5C 763.581,517.148 762.914,516.815 762,520.5C 761.667,519.833 761.333,519.167 761,518.5C 760.259,519.641 759.425,519.641 758.5,518.5C 757.719,517.271 757.219,515.938 757,514.5C 756.667,521.167 756.333,527.833 756,534.5C 755.824,530.312 755.324,526.312 754.5,522.5C 753.404,496.286 753.404,469.619 754.5,442.5C 755.5,442.5 756.5,442.5 757.5,442.5 Z"/></g>
<g><path style="opacity:1" fill="#000084" d="M 1371.5,486.5 C 1371.5,494.167 1371.5,501.833 1371.5,509.5C 1360.15,509.832 1348.81,509.499 1337.5,508.5C 1336.85,496.039 1336.18,483.705 1335.5,471.5C 1334.51,471.672 1333.84,471.338 1333.5,470.5C 1334.82,470.67 1335.99,470.337 1337,469.5C 1337.49,471.134 1337.66,472.801 1337.5,474.5C 1348.84,474.333 1360.17,474.5 1371.5,475C 1372.54,478.623 1372.54,482.457 1371.5,486.5 Z"/></g>
<g><path style="opacity:0.996" fill="#0200bb" d="M 533.5,466.5 C 532.529,470.881 531.696,475.215 531,479.5C 542,478.167 553,478.167 564,479.5C 564.278,478.584 564.778,477.918 565.5,477.5C 562.552,488.127 559.219,498.627 555.5,509C 571.167,509.667 586.833,509.667 602.5,509C 601.318,505.602 599.984,502.269 598.5,499C 599.056,498.617 599.389,498.117 599.5,497.5C 605.426,496.21 611.593,495.543 618,495.5C 623.833,495.667 629.667,495.833 635.5,496C 636,496.5 636.5,497 637,497.5C 636.865,495.575 636.698,493.575 636.5,491.5C 640.136,502.038 643.47,512.704 646.5,523.5C 645.566,524.568 645.232,525.901 645.5,527.5C 601.827,527.294 558.16,527.627 514.5,528.5C 514.5,526.833 514.5,525.167 514.5,523.5C 520.752,504.026 527.085,485.026 533.5,466.5 Z"/></g>
<g><path style="opacity:0.996" fill="#01009b" d="M 1073.5,466.5 C 1075.66,471.523 1076.99,476.857 1077.5,482.5C 1076.71,493.482 1076.38,504.482 1076.5,515.5C 1075.69,517.292 1075.19,519.292 1075,521.5C 1074.51,519.866 1074.34,518.199 1074.5,516.5C 1039.93,516.171 1005.43,516.504 971,517.5C 970.536,516.906 970.369,516.239 970.5,515.5C 973.639,511.53 977.305,508.03 981.5,505C 993.966,498.436 1007.3,495.602 1021.5,496.5C 1027.52,496.629 1033.52,496.962 1039.5,497.5C 1039.36,493.455 1039.36,489.621 1039.5,486C 1037.19,485.646 1036.86,484.646 1038.5,483C 1037.17,478.833 1034.83,475.333 1031.5,472.5C 1031.94,471.769 1032.11,470.769 1032,469.5C 1045.1,469.641 1058.27,469.975 1071.5,470.5C 1073.05,469.131 1073.72,467.798 1073.5,466.5 Z"/></g>
<g><path style="opacity:0.99" fill="#030178" d="M 1505.5,478.5 C 1506.29,478.783 1506.96,479.283 1507.5,480C 1512.09,480.197 1516.59,480.697 1521,481.5C 1527,480.167 1533,480.167 1539,481.5C 1539.33,478.81 1540.5,478.143 1542.5,479.5C 1538.31,494.604 1533.98,509.604 1529.5,524.5C 1529.66,521.813 1529.5,519.146 1529,516.5C 1528.67,517.5 1528.33,518.5 1528,519.5C 1527.19,514.954 1525.86,514.62 1524,518.5C 1523.33,515.833 1522.67,515.833 1522,518.5C 1521.33,515.833 1520.67,515.833 1520,518.5C 1519.33,514.5 1518.67,514.5 1518,518.5C 1516.44,513.372 1515.11,513.372 1514,518.5C 1513.33,513.167 1512.67,513.167 1512,518.5C 1511.78,517.062 1511.28,515.729 1510.5,514.5C 1509.5,515.833 1508.5,515.833 1507.5,514.5C 1506.38,519.721 1505.54,519.721 1505,514.5C 1504.33,519.833 1503.67,519.833 1503,514.5C 1502.33,517.167 1501.67,517.167 1501,514.5C 1500.33,517.167 1499.67,517.167 1499,514.5C 1498.28,516.112 1498.45,517.612 1499.5,519C 1497.91,518.383 1496.57,518.716 1495.5,520C 1496.88,521.461 1496.55,522.294 1494.5,522.5C 1497.12,513.029 1499.45,503.696 1501.5,494.5C 1501.29,493.914 1500.96,493.414 1500.5,493C 1502.1,488.073 1503.77,483.24 1505.5,478.5 Z"/></g>
<g><path style="opacity:1" fill="#fe7b01" d="M 214.5,522.5 C 212.368,538.853 210.202,555.186 208,571.5C 204.755,555.661 202.088,539.661 200,523.5C 199.621,520.97 198.787,518.637 197.5,516.5C 198.497,516.53 199.164,516.03 199.5,515C 200.207,511.8 201.04,508.633 202,505.5C 206.212,511.312 210.379,516.978 214.5,522.5 Z"/></g>
<g><path style="opacity:1" fill="#000080" d="M 1251.5,484.5 C 1263.99,486.251 1276.66,487.084 1289.5,487C 1288.52,488.924 1288.19,491.09 1288.5,493.5C 1288.5,506.5 1288.5,519.5 1288.5,532.5C 1276.5,532.5 1264.5,532.5 1252.5,532.5C 1252.5,539.167 1252.5,545.833 1252.5,552.5C 1251.89,563.423 1252.56,574.09 1254.5,584.5C 1253.5,584.5 1252.5,584.5 1251.5,584.5C 1251.5,551.167 1251.5,517.833 1251.5,484.5 Z"/></g>
<g><path style="opacity:0.996" fill="#01008d" d="M 970.5,515.5 C 970.369,516.239 970.536,516.906 971,517.5C 1005.43,516.504 1039.93,516.171 1074.5,516.5C 1074.34,518.199 1074.51,519.866 1075,521.5C 1075.19,519.292 1075.69,517.292 1076.5,515.5C 1076.67,525.839 1076.5,536.172 1076,546.5C 1075.67,542.5 1075.33,538.5 1075,534.5C 1063.67,535.167 1052.33,535.833 1041,536.5C 1040.82,532.312 1040.32,528.312 1039.5,524.5C 1030.34,523.342 1021.01,523.176 1011.5,524C 1002.73,527.17 998.402,533.504 998.5,543C 999.159,545.462 999.493,547.962 999.5,550.5C 998.069,549.22 997.402,547.553 997.5,545.5C 985.919,545.821 974.419,545.488 963,544.5C 962.691,545.766 962.191,546.933 961.5,548C 962.736,550.625 962.736,553.125 961.5,555.5C 958.097,540.185 961.097,526.851 970.5,515.5 Z"/></g>
<g><path style="opacity:0.989" fill="#01009e" d="M 820.5,486.5 C 820.611,487.117 820.944,487.617 821.5,488C 833.829,488.5 846.162,488.667 858.5,488.5C 855.094,504.439 854.761,520.439 857.5,536.5C 856.711,536.217 856.044,535.717 855.5,535C 842.788,534.795 830.122,534.295 817.5,533.5C 816.863,529.33 816.197,525.164 815.5,521C 816.25,511.548 817.083,502.048 818,492.5C 818.037,490.026 818.87,488.026 820.5,486.5 Z"/></g>
<g><path style="opacity:1" fill="#00009e" d="M 900.5,478.5 C 901.117,478.611 901.617,478.944 902,479.5C 902.498,482.482 902.665,485.482 902.5,488.5C 914.167,488.5 925.833,488.5 937.5,488.5C 937.021,504.594 937.021,521.26 937.5,538.5C 935.896,537.713 935.229,536.38 935.5,534.5C 924.5,534.5 913.5,534.5 902.5,534.5C 902.663,532.143 902.497,529.81 902,527.5C 901.667,532.167 901.333,536.833 901,541.5C 900.5,520.503 900.333,499.503 900.5,478.5 Z"/></g>
<g><path style="opacity:1" fill="#0401ab" d="M 514.5,523.5 C 514.5,525.167 514.5,526.833 514.5,528.5C 558.16,527.627 601.827,527.294 645.5,527.5C 645.232,525.901 645.566,524.568 646.5,523.5C 650.766,533.864 654.432,544.53 657.5,555.5C 657.585,556.995 656.919,557.995 655.5,558.5C 654.304,558.154 654.304,557.654 655.5,557C 643.591,556.822 631.758,556.322 620,555.5C 619.667,556.5 619.333,557.5 619,558.5C 618.576,555.975 617.41,553.975 615.5,552.5C 614.869,550.552 613.869,548.719 612.5,547C 613.276,545.23 613.11,543.397 612,541.5C 611.439,540.978 610.772,540.645 610,540.5C 591.07,541.081 570.237,541.081 547.5,540.5C 546.914,540.709 546.414,541.043 546,541.5C 545.105,546.432 543.605,551.099 541.5,555.5C 540.069,555.881 539.236,556.881 539,558.5C 535.238,556.871 531.238,555.871 527,555.5C 520.333,555.5 513.667,555.5 507,555.5C 506.184,556.823 505.017,557.489 503.5,557.5C 507.192,546.093 510.859,534.759 514.5,523.5 Z"/></g>
<g><path style="opacity:0.992" fill="#000066" d="M 1474.5,508.5 C 1478.22,518.427 1480.55,528.761 1481.5,539.5C 1480.88,539.389 1480.38,539.056 1480,538.5C 1479.53,540.246 1478.86,541.913 1478,543.5C 1477.31,541.109 1476.31,541.109 1475,543.5C 1474.09,542.672 1473.42,541.672 1473,540.5C 1472.72,543.742 1471.88,544.076 1470.5,541.5C 1469.03,541.723 1467.53,542.056 1466,542.5C 1465.67,541.833 1465.33,541.167 1465,540.5C 1464,541.5 1463,542.5 1462,543.5C 1461.31,541.109 1460.31,541.109 1459,543.5C 1458.15,541.875 1457.15,541.542 1456,542.5C 1455.33,539.833 1454.67,539.833 1454,542.5C 1452.41,541.273 1451.08,541.606 1450,543.5C 1449.09,542.672 1448.42,541.672 1448,540.5C 1447.8,542.32 1446.97,543.653 1445.5,544.5C 1442.25,532.777 1438.91,521.444 1435.5,510.5C 1436.41,508.981 1437.24,507.315 1438,505.5C 1438.67,506.167 1439.33,506.833 1440,507.5C 1441.31,505.109 1442.31,505.109 1443,507.5C 1443.69,505.109 1444.69,505.109 1446,507.5C 1447.78,506.521 1449.45,506.854 1451,508.5C 1452.59,507.427 1454.09,506.427 1455.5,505.5C 1456.81,506.313 1457.98,507.313 1459,508.5C 1459.67,507.833 1460.33,507.167 1461,506.5C 1463,507.833 1465,507.833 1467,506.5C 1468.83,508.807 1470.49,508.474 1472,505.5C 1472.85,506.571 1473.69,507.571 1474.5,508.5 Z"/></g>
<g><path style="opacity:0.979" fill="#01009a" d="M 787.5,442.5 C 789.5,442.5 791.5,442.5 793.5,442.5C 793.211,479.849 793.545,517.182 794.5,554.5C 793.312,553.952 792.145,553.619 791,553.5C 790.333,556.167 789.667,556.167 789,553.5C 788.085,554.328 787.419,555.328 787,556.5C 784.459,551.154 783.126,551.154 783,556.5C 782.085,555.672 781.419,554.672 781,553.5C 779.863,554.364 778.53,555.364 777,556.5C 776.667,555.5 776.333,554.5 776,553.5C 774.023,560.129 772.69,560.462 772,554.5C 771.511,560.751 770.178,560.751 768,554.5C 767.333,558.5 766.667,558.5 766,554.5C 765.431,558.361 764.598,558.361 763.5,554.5C 761.53,555.443 760.03,554.776 759,552.5C 757,556.5 755,556.5 753,552.5C 751,556.5 749,556.5 747,552.5C 746.333,553.833 745.333,554.833 744,555.5C 742.192,555.112 740.525,555.112 739,555.5C 736.667,554.833 734.333,554.167 732,553.5C 731.667,553.833 731.333,554.167 731,554.5C 728.37,554.141 726.203,553.141 724.5,551.5C 729.248,551.725 733.915,551.225 738.5,550C 742.642,547.427 746.976,545.094 751.5,543C 752.701,542.097 753.535,540.931 754,539.5C 754.499,533.843 754.666,528.176 754.5,522.5C 755.324,526.312 755.824,530.312 756,534.5C 756.333,527.833 756.667,521.167 757,514.5C 757.219,515.938 757.719,517.271 758.5,518.5C 759.425,519.641 760.259,519.641 761,518.5C 761.333,519.167 761.667,519.833 762,520.5C 762.914,516.815 763.581,517.148 764,521.5C 764.419,517.148 765.086,516.815 766,520.5C 766.667,516.5 767.333,516.5 768,520.5C 768.667,515.167 769.333,515.167 770,520.5C 770.914,516.815 771.581,517.148 772,521.5C 772.419,517.148 773.086,516.815 774,520.5C 774.667,516.5 775.333,516.5 776,520.5C 776.667,516.5 777.333,516.5 778,520.5C 778.914,516.815 779.581,517.148 780,521.5C 780.419,517.148 781.086,516.815 782,520.5C 782.667,516.5 783.333,516.5 784,520.5C 784.667,516.5 785.333,516.5 786,520.5C 786.914,516.815 787.581,517.148 788,521.5C 788.419,517.148 789.086,516.815 790,520.5C 790.333,518.833 790.667,517.167 791,515.5C 791.333,521.833 791.667,528.167 792,534.5C 792.5,523.172 792.667,511.838 792.5,500.5C 792.5,481.5 792.5,462.5 792.5,443.5C 790.585,443.784 788.919,443.451 787.5,442.5 Z"/></g>
<g><path style="opacity:0.979" fill="#02009a" d="M 674.5,469.5 C 675.451,470.919 675.784,472.585 675.5,474.5C 675.333,496.503 675.5,518.503 676,540.5C 676.333,532.833 676.667,525.167 677,517.5C 678.57,518.614 679.903,519.947 681,521.5C 681.333,520.833 681.667,520.167 682,519.5C 682.667,522.167 683.333,522.167 684,519.5C 684.667,522.167 685.333,522.167 686,519.5C 686.667,522.167 687.333,522.167 688,519.5C 688.626,521.991 689.459,521.991 690.5,519.5C 693.603,522.581 695.436,521.914 696,517.5C 696.333,518.833 696.667,520.167 697,521.5C 697.667,514.833 698.333,514.833 699,521.5C 699.667,516.167 700.333,516.167 701,521.5C 701.667,517.5 702.333,517.5 703,521.5C 703.667,517.5 704.333,517.5 705,521.5C 705.667,517.5 706.333,517.5 707,521.5C 707.667,516.167 708.333,516.167 709,521.5C 709.019,518.692 710.019,516.359 712,514.5C 712.145,520.589 712.645,525.923 713.5,530.5C 714.014,536.496 715.18,542.496 717,548.5C 718.78,549.639 720.614,550.639 722.5,551.5C 723.472,554.021 722.472,554.854 719.5,554C 721.932,552.913 721.598,552.413 718.5,552.5C 718.688,554.103 718.188,555.437 717,556.5C 715.43,555.386 714.097,554.053 713,552.5C 711,556.5 709,556.5 707,552.5C 705,556.5 703,556.5 701,552.5C 699,556.5 697,556.5 695,552.5C 693,556.5 691,556.5 689,552.5C 687.384,553.545 685.717,554.545 684,555.5C 683.431,551.639 682.598,551.639 681.5,555.5C 680.575,554.359 679.741,554.359 679,555.5C 679.109,556.769 678.942,557.769 678.5,558.5C 676.38,555.015 675.046,551.182 674.5,547C 674.466,521.16 674.466,495.327 674.5,469.5 Z"/></g>
<g><path style="opacity:0.998" fill="#020077" d="M 1141.5,520.5 C 1140.94,531.14 1143.61,540.806 1149.5,549.5C 1147.69,548.652 1146.19,548.652 1145,549.5C 1144.52,550.448 1144.35,551.448 1144.5,552.5C 1133.16,552.333 1121.83,552.5 1110.5,553C 1109.94,553.383 1109.61,553.883 1109.5,554.5C 1107.99,551.316 1106.32,548.149 1104.5,545C 1105.02,544.439 1105.36,543.772 1105.5,543C 1103.25,537.799 1102.08,532.299 1102,526.5C 1101.5,526 1101,525.5 1100.5,525C 1100.47,519.799 1100.8,514.299 1101.5,508.5C 1102.48,508.811 1103.14,509.478 1103.5,510.5C 1102.52,512.098 1102.35,513.765 1103,515.5C 1114.92,513.533 1127.08,512.866 1139.5,513.5C 1139.34,511.473 1139.5,509.473 1140,507.5C 1140.8,511.755 1140.63,515.921 1139.5,520C 1140.09,520.464 1140.76,520.631 1141.5,520.5 Z"/></g>
<g><path style="opacity:1" fill="#00015d" d="M 1529.5,524.5 C 1525.79,537.984 1522.46,551.651 1519.5,565.5C 1518.21,567.748 1517.21,570.082 1516.5,572.5C 1515.84,571.352 1515.67,570.019 1516,568.5C 1515.67,568.167 1515.33,567.833 1515,567.5C 1514.67,568.5 1514.33,569.5 1514,570.5C 1513.77,569.263 1513.27,568.263 1512.5,567.5C 1512.78,566.711 1513.28,566.044 1514,565.5C 1515.3,565.966 1516.8,565.966 1518.5,565.5C 1518.66,563.801 1518.49,562.134 1518,560.5C 1517.33,559.167 1516.67,559.167 1516,560.5C 1515.67,559.833 1515.33,559.167 1515,558.5C 1514.58,562.852 1513.91,563.185 1513,559.5C 1512.64,562.544 1511.97,562.878 1511,560.5C 1510.03,562.878 1509.36,562.544 1509,559.5C 1508.67,560.5 1508.33,561.5 1508,562.5C 1507.28,560.888 1507.45,559.388 1508.5,558C 1507.64,555.266 1506.81,555.099 1506,557.5C 1505.67,556.5 1505.33,555.5 1505,554.5C 1504.33,553.167 1503.67,553.167 1503,554.5C 1502.33,553.5 1502.33,552.5 1503,551.5C 1503.33,551.833 1503.67,552.167 1504,552.5C 1504.67,551.5 1504.67,550.5 1504,549.5C 1502.72,549.381 1501.55,549.881 1500.5,551C 1500.96,551.414 1501.29,551.914 1501.5,552.5C 1500.19,553.912 1499.36,555.579 1499,557.5C 1498.67,556.5 1498.33,555.5 1498,554.5C 1497.67,554.833 1497.33,555.167 1497,555.5C 1497,557.5 1497,559.5 1497,561.5C 1496.33,558.833 1495.67,558.833 1495,561.5C 1493.15,559.77 1493.31,558.604 1495.5,558C 1494.74,556.488 1493.74,555.154 1492.5,554C 1491.26,553.544 1490.42,554.044 1490,555.5C 1489.76,553.881 1488.93,552.881 1487.5,552.5C 1487.77,546.846 1489.1,541.512 1491.5,536.5C 1491.29,535.914 1490.96,535.414 1490.5,535C 1492.37,530.999 1493.71,526.832 1494.5,522.5C 1496.55,522.294 1496.88,521.461 1495.5,520C 1496.57,518.716 1497.91,518.383 1499.5,519C 1498.45,517.612 1498.28,516.112 1499,514.5C 1499.67,517.167 1500.33,517.167 1501,514.5C 1501.67,517.167 1502.33,517.167 1503,514.5C 1503.67,519.833 1504.33,519.833 1505,514.5C 1505.54,519.721 1506.38,519.721 1507.5,514.5C 1508.5,515.833 1509.5,515.833 1510.5,514.5C 1511.28,515.729 1511.78,517.062 1512,518.5C 1512.67,513.167 1513.33,513.167 1514,518.5C 1515.11,513.372 1516.44,513.372 1518,518.5C 1518.67,514.5 1519.33,514.5 1520,518.5C 1520.67,515.833 1521.33,515.833 1522,518.5C 1522.67,515.833 1523.33,515.833 1524,518.5C 1525.86,514.62 1527.19,514.954 1528,519.5C 1528.33,518.5 1528.67,517.5 1529,516.5C 1529.5,519.146 1529.66,521.813 1529.5,524.5 Z"/></g>
<g><path style="opacity:1" fill="#020166" d="M 1335.5,471.5 C 1336.18,483.705 1336.85,496.039 1337.5,508.5C 1348.81,509.499 1360.15,509.832 1371.5,509.5C 1371.5,501.833 1371.5,494.167 1371.5,486.5C 1372.17,505.167 1372.83,523.833 1373.5,542.5C 1372.47,547.691 1374.13,551.691 1378.5,554.5C 1386.5,555.167 1394.5,555.833 1402.5,556.5C 1404.02,558.547 1404.85,560.881 1405,563.5C 1405.5,570.158 1405.67,576.825 1405.5,583.5C 1403.42,583.472 1401.58,584.139 1400,585.5C 1397.43,584.969 1394.93,584.636 1392.5,584.5C 1394.34,583.717 1396.34,583.05 1398.5,582.5C 1400.5,583.61 1402.33,583.276 1404,581.5C 1404.37,576.799 1404.54,572.299 1404.5,568C 1403.3,567.097 1402.47,565.931 1402,564.5C 1380.89,566.155 1359.73,567.155 1338.5,567.5C 1336.35,567.611 1336.02,566.944 1337.5,565.5C 1336.82,561.236 1335.82,557.069 1334.5,553C 1335.22,523.128 1335.55,495.961 1335.5,471.5 Z"/></g>
<g><path style="opacity:1" fill="#00006b" d="M 1288.5,493.5 C 1289.5,523.662 1289.83,553.995 1289.5,584.5C 1289.06,585.506 1288.4,585.506 1287.5,584.5C 1288.48,573.915 1288.81,563.248 1288.5,552.5C 1276.5,552.5 1264.5,552.5 1252.5,552.5C 1252.5,545.833 1252.5,539.167 1252.5,532.5C 1264.5,532.5 1276.5,532.5 1288.5,532.5C 1288.5,519.5 1288.5,506.5 1288.5,493.5 Z"/></g>
<g><path style="opacity:1" fill="#080288" d="M 900.5,478.5 C 900.333,499.503 900.5,520.503 901,541.5C 901.333,536.833 901.667,532.167 902,527.5C 902.497,529.81 902.663,532.143 902.5,534.5C 913.5,534.5 924.5,534.5 935.5,534.5C 935.229,536.38 935.896,537.713 937.5,538.5C 937.216,540.415 937.549,542.081 938.5,543.5C 938.349,549.406 939.349,555.072 941.5,560.5C 902.962,560.276 864.295,560.943 825.5,562.5C 824.307,559.948 822.973,557.448 821.5,555C 821.833,554.667 822.167,554.333 822.5,554C 819.185,547.644 817.519,540.811 817.5,533.5C 830.122,534.295 842.788,534.795 855.5,535C 856.044,535.717 856.711,536.217 857.5,536.5C 864.095,558.413 876.761,562.58 895.5,549C 896.79,546.708 898.457,544.708 900.5,543C 899.169,521.402 899.169,499.902 900.5,478.5 Z"/></g>
<g><path style="opacity:0.999" fill="#060177" d="M 1077.5,482.5 C 1078.33,506.33 1078.83,530.33 1079,554.5C 1079.32,559.158 1081.32,562.824 1085,565.5C 1084.93,573.966 1081.43,580.632 1074.5,585.5C 1072.32,586.103 1070.15,586.77 1068,587.5C 1064.95,585.343 1061.12,583.843 1056.5,583C 1052.33,579.5 1048.5,575.667 1045,571.5C 1029.47,585.924 1011.31,591.091 990.5,587C 974.73,581.988 965.063,571.488 961.5,555.5C 962.736,553.125 962.736,550.625 961.5,548C 962.191,546.933 962.691,545.766 963,544.5C 974.419,545.488 985.919,545.821 997.5,545.5C 997.402,547.553 998.069,549.22 999.5,550.5C 1004.15,557.779 1010.81,560.279 1019.5,558C 1027.43,556.038 1034.1,552.038 1039.5,546C 1038.83,539.001 1038.83,531.834 1039.5,524.5C 1040.32,528.312 1040.82,532.312 1041,536.5C 1052.33,535.833 1063.67,535.167 1075,534.5C 1075.33,538.5 1075.67,542.5 1076,546.5C 1076.5,536.172 1076.67,525.839 1076.5,515.5C 1076.38,504.482 1076.71,493.482 1077.5,482.5 Z"/></g>
<g><path style="opacity:1" fill="#010063" d="M 1109.5,554.5 C 1109.61,553.883 1109.94,553.383 1110.5,553C 1121.83,552.5 1133.16,552.333 1144.5,552.5C 1144.35,551.448 1144.52,550.448 1145,549.5C 1146.19,548.652 1147.69,548.652 1149.5,549.5C 1156,556.301 1164,558.801 1173.5,557C 1183.57,554.757 1192.74,550.59 1201,544.5C 1207.51,548.673 1212.18,554.34 1215,561.5C 1215.99,563.447 1216.32,565.447 1216,567.5C 1210.69,571.15 1205.69,575.15 1201,579.5C 1200.67,579.167 1200.33,578.833 1200,578.5C 1196.99,579.727 1193.99,581.727 1191,584.5C 1188.27,584.014 1185.6,584.68 1183,586.5C 1181.98,585.366 1181.32,585.699 1181,587.5C 1179.88,587.335 1178.72,587.002 1177.5,586.5C 1154.54,592.097 1134.54,586.43 1117.5,569.5C 1114.07,564.832 1111.4,559.832 1109.5,554.5 Z"/></g>
<g><path style="opacity:1" fill="#000150" d="M 1481.5,539.5 C 1482.67,545.516 1484.17,551.516 1486,557.5C 1486.2,555.618 1486.7,553.952 1487.5,552.5C 1488.93,552.881 1489.76,553.881 1490,555.5C 1490.42,554.044 1491.26,553.544 1492.5,554C 1493.74,555.154 1494.74,556.488 1495.5,558C 1493.31,558.604 1493.15,559.77 1495,561.5C 1495.67,558.833 1496.33,558.833 1497,561.5C 1497,559.5 1497,557.5 1497,555.5C 1497.33,555.167 1497.67,554.833 1498,554.5C 1498.33,555.5 1498.67,556.5 1499,557.5C 1499.36,555.579 1500.19,553.912 1501.5,552.5C 1501.29,551.914 1500.96,551.414 1500.5,551C 1501.55,549.881 1502.72,549.381 1504,549.5C 1504.67,550.5 1504.67,551.5 1504,552.5C 1503.67,552.167 1503.33,551.833 1503,551.5C 1502.33,552.5 1502.33,553.5 1503,554.5C 1503.67,553.167 1504.33,553.167 1505,554.5C 1505.33,555.5 1505.67,556.5 1506,557.5C 1506.81,555.099 1507.64,555.266 1508.5,558C 1507.45,559.388 1507.28,560.888 1508,562.5C 1508.33,561.5 1508.67,560.5 1509,559.5C 1509.36,562.544 1510.03,562.878 1511,560.5C 1511.97,562.878 1512.64,562.544 1513,559.5C 1513.91,563.185 1514.58,562.852 1515,558.5C 1515.33,559.167 1515.67,559.833 1516,560.5C 1516.67,559.167 1517.33,559.167 1518,560.5C 1518.49,562.134 1518.66,563.801 1518.5,565.5C 1516.8,565.966 1515.3,565.966 1514,565.5C 1513.28,566.044 1512.78,566.711 1512.5,567.5C 1512.31,571.449 1511.81,571.449 1511,567.5C 1510.15,569.125 1509.15,569.458 1508,568.5C 1507.33,572.5 1506.67,572.5 1506,568.5C 1505.37,570.991 1504.54,570.991 1503.5,568.5C 1502.57,569.641 1501.74,569.641 1501,568.5C 1500.67,569.167 1500.33,569.833 1500,570.5C 1498.86,569.636 1497.53,568.636 1496,567.5C 1495.33,570.167 1494.67,570.167 1494,567.5C 1493.09,568.328 1492.42,569.328 1492,570.5C 1491.67,569.833 1491.33,569.167 1491,568.5C 1489.13,567.911 1487.46,568.578 1486,570.5C 1484.69,568.109 1483.69,568.109 1483,570.5C 1482.33,569.167 1481.67,567.833 1481,566.5C 1480.33,569.167 1479.67,569.167 1479,566.5C 1478.58,570.852 1477.91,571.185 1477,567.5C 1476.09,571.185 1475.42,570.852 1475,566.5C 1474.58,570.852 1473.91,571.185 1473,567.5C 1472.33,571.5 1471.67,571.5 1471,567.5C 1470.33,568.833 1469.67,570.167 1469,571.5C 1468,570.5 1467,569.5 1466,568.5C 1465.33,571.167 1464.67,571.167 1464,568.5C 1463.67,569.167 1463.33,569.833 1463,570.5C 1462,569.167 1461,567.833 1460,566.5C 1459.33,567.833 1458.67,569.167 1458,570.5C 1457.33,569.167 1456.67,567.833 1456,566.5C 1456.52,569.223 1456.35,571.889 1455.5,574.5C 1453.89,570.746 1452.23,566.913 1450.5,563C 1450.96,562.586 1451.29,562.086 1451.5,561.5C 1448.99,555.649 1446.99,549.982 1445.5,544.5C 1446.97,543.653 1447.8,542.32 1448,540.5C 1448.42,541.672 1449.09,542.672 1450,543.5C 1451.08,541.606 1452.41,541.273 1454,542.5C 1454.67,539.833 1455.33,539.833 1456,542.5C 1457.15,541.542 1458.15,541.875 1459,543.5C 1460.31,541.109 1461.31,541.109 1462,543.5C 1463,542.5 1464,541.5 1465,540.5C 1465.33,541.167 1465.67,541.833 1466,542.5C 1467.53,542.056 1469.03,541.723 1470.5,541.5C 1471.88,544.076 1472.72,543.742 1473,540.5C 1473.42,541.672 1474.09,542.672 1475,543.5C 1476.31,541.109 1477.31,541.109 1478,543.5C 1478.86,541.913 1479.53,540.246 1480,538.5C 1480.38,539.056 1480.88,539.389 1481.5,539.5 Z"/></g>
<g><path style="opacity:0.997" fill="#02008a" d="M 722.5,551.5 C 723.167,551.5 723.833,551.5 724.5,551.5C 726.203,553.141 728.37,554.141 731,554.5C 731.333,554.167 731.667,553.833 732,553.5C 734.333,554.167 736.667,554.833 739,555.5C 740.525,555.112 742.192,555.112 744,555.5C 745.333,554.833 746.333,553.833 747,552.5C 749,556.5 751,556.5 753,552.5C 755,556.5 757,556.5 759,552.5C 760.03,554.776 761.53,555.443 763.5,554.5C 764.598,558.361 765.431,558.361 766,554.5C 766.667,558.5 767.333,558.5 768,554.5C 770.178,560.751 771.511,560.751 772,554.5C 772.69,560.462 774.023,560.129 776,553.5C 776.333,554.5 776.667,555.5 777,556.5C 778.53,555.364 779.863,554.364 781,553.5C 781.419,554.672 782.085,555.672 783,556.5C 783.126,551.154 784.459,551.154 787,556.5C 787.419,555.328 788.085,554.328 789,553.5C 789.667,556.167 790.333,556.167 791,553.5C 792.145,553.619 793.312,553.952 794.5,554.5C 795.536,559.575 797.87,563.908 801.5,567.5C 799.325,574.843 795.325,581.01 789.5,586C 788.333,586.167 787.167,586.333 786,586.5C 776.939,585.632 769.606,581.966 764,575.5C 762.333,572.833 760.667,570.167 759,567.5C 742.898,584.171 723.065,590.004 699.5,585C 688.165,579.509 681.165,570.676 678.5,558.5C 678.942,557.769 679.109,556.769 679,555.5C 679.741,554.359 680.575,554.359 681.5,555.5C 682.598,551.639 683.431,551.639 684,555.5C 685.717,554.545 687.384,553.545 689,552.5C 691,556.5 693,556.5 695,552.5C 697,556.5 699,556.5 701,552.5C 703,556.5 705,556.5 707,552.5C 709,556.5 711,556.5 713,552.5C 714.097,554.053 715.43,555.386 717,556.5C 718.188,555.437 718.688,554.103 718.5,552.5C 721.598,552.413 721.932,552.913 719.5,554C 722.472,554.854 723.472,554.021 722.5,551.5 Z"/></g>
<g><path style="opacity:1" fill="#03007b" d="M 941.5,560.5 C 942.794,562.907 944.461,565.074 946.5,567C 944.001,574.342 940.001,580.676 934.5,586C 928.108,586.569 922.108,585.236 916.5,582C 912.387,579.044 908.887,575.544 906,571.5C 887.31,589.91 865.81,593.41 841.5,582C 834.911,576.573 829.577,570.073 825.5,562.5C 864.295,560.943 902.962,560.276 941.5,560.5 Z"/></g>
<g><path style="opacity:1" fill="#000059" d="M 1252.5,552.5 C 1264.5,552.5 1276.5,552.5 1288.5,552.5C 1288.81,563.248 1288.48,573.915 1287.5,584.5C 1287.19,585.478 1286.52,586.145 1285.5,586.5C 1277.76,586.037 1270.09,586.037 1262.5,586.5C 1259.69,585.92 1257.02,585.254 1254.5,584.5C 1252.56,574.09 1251.89,563.423 1252.5,552.5 Z"/></g>
<g><path style="opacity:0.989" fill="#000150" d="M 1392.5,584.5 C 1386.25,585.293 1379.91,585.793 1373.5,586C 1372.23,586.309 1371.07,586.809 1370,587.5C 1364.98,585.875 1359.81,584.708 1354.5,584C 1346.03,581.429 1340.7,575.929 1338.5,567.5C 1359.73,567.155 1380.89,566.155 1402,564.5C 1402.47,565.931 1403.3,567.097 1404.5,568C 1404.54,572.299 1404.37,576.799 1404,581.5C 1402.33,583.276 1400.5,583.61 1398.5,582.5C 1396.34,583.05 1394.34,583.717 1392.5,584.5 Z"/></g>
<g><path style="opacity:0.988" fill="#000244" d="M 1512.5,567.5 C 1513.27,568.263 1513.77,569.263 1514,570.5C 1514.33,569.5 1514.67,568.5 1515,567.5C 1515.33,567.833 1515.67,568.167 1516,568.5C 1515.67,570.019 1515.84,571.352 1516.5,572.5C 1515.71,579.684 1513.71,586.351 1510.5,592.5C 1510.54,591.244 1510.04,590.244 1509,589.5C 1508.71,591.044 1508.04,592.377 1507,593.5C 1506.33,590.833 1505.67,590.833 1505,593.5C 1504.33,592.167 1503.67,590.833 1503,589.5C 1500.33,589.5 1497.67,589.5 1495,589.5C 1493.18,590.749 1493.34,591.915 1495.5,593C 1494.28,595.096 1493.45,594.929 1493,592.5C 1492.55,594.929 1491.72,595.096 1490.5,593C 1492.66,591.915 1492.82,590.749 1491,589.5C 1487.33,589.833 1483.67,590.167 1480,590.5C 1479.72,589.584 1479.22,588.918 1478.5,588.5C 1477.53,586.915 1476.03,585.915 1474,585.5C 1469.47,585.452 1464.97,584.285 1460.5,582C 1458.19,579.872 1456.53,577.372 1455.5,574.5C 1456.35,571.889 1456.52,569.223 1456,566.5C 1456.67,567.833 1457.33,569.167 1458,570.5C 1458.67,569.167 1459.33,567.833 1460,566.5C 1461,567.833 1462,569.167 1463,570.5C 1463.33,569.833 1463.67,569.167 1464,568.5C 1464.67,571.167 1465.33,571.167 1466,568.5C 1467,569.5 1468,570.5 1469,571.5C 1469.67,570.167 1470.33,568.833 1471,567.5C 1471.67,571.5 1472.33,571.5 1473,567.5C 1473.91,571.185 1474.58,570.852 1475,566.5C 1475.42,570.852 1476.09,571.185 1477,567.5C 1477.91,571.185 1478.58,570.852 1479,566.5C 1479.67,569.167 1480.33,569.167 1481,566.5C 1481.67,567.833 1482.33,569.167 1483,570.5C 1483.69,568.109 1484.69,568.109 1486,570.5C 1487.46,568.578 1489.13,567.911 1491,568.5C 1491.33,569.167 1491.67,569.833 1492,570.5C 1492.42,569.328 1493.09,568.328 1494,567.5C 1494.67,570.167 1495.33,570.167 1496,567.5C 1497.53,568.636 1498.86,569.636 1500,570.5C 1500.33,569.833 1500.67,569.167 1501,568.5C 1501.74,569.641 1502.57,569.641 1503.5,568.5C 1504.54,570.991 1505.37,570.991 1506,568.5C 1506.67,572.5 1507.33,572.5 1508,568.5C 1509.15,569.458 1510.15,569.125 1511,567.5C 1511.81,571.449 1512.31,571.449 1512.5,567.5 Z"/></g>
<g><path style="opacity:0.984" fill="#040199" d="M 541.5,555.5 C 539.125,565.341 536.291,575.008 533,584.5C 527.01,585.573 521.01,586.573 515,587.5C 510.329,585.98 505.495,585.146 500.5,585C 495.121,583.53 494.121,580.53 497.5,576C 497.167,575.667 496.833,575.333 496.5,575C 498.653,568.666 500.986,562.833 503.5,557.5C 505.017,557.489 506.184,556.823 507,555.5C 513.667,555.5 520.333,555.5 527,555.5C 531.238,555.871 535.238,556.871 539,558.5C 539.236,556.881 540.069,555.881 541.5,555.5 Z"/></g>
<g><path style="opacity:0.986" fill="#030098" d="M 615.5,552.5 C 617.41,553.975 618.576,555.975 619,558.5C 619.333,557.5 619.667,556.5 620,555.5C 631.758,556.322 643.591,556.822 655.5,557C 654.304,557.654 654.304,558.154 655.5,558.5C 656.919,557.995 657.585,556.995 657.5,555.5C 659.681,562.869 662.181,570.202 665,577.5C 665.798,579.259 665.631,580.926 664.5,582.5C 661.727,583.468 659.227,584.801 657,586.5C 656.275,585.941 655.442,585.608 654.5,585.5C 634.207,590.745 622.54,583.578 619.5,564C 618.023,560.213 616.689,556.38 615.5,552.5 Z"/></g>
<g><path style="opacity:0.02" fill="#514b7f" d="M 167.5,584.5 C 166.833,585.167 166.833,585.167 167.5,584.5 Z"/></g>
<g><path style="opacity:0.02" fill="#514b7f" d="M 1074.5,585.5 C 1075.83,586.167 1075.83,586.167 1074.5,585.5 Z"/></g>
<g><path style="opacity:0.307" fill="#f2e318" d="M 223.5,519.5 C 228.353,539.605 233.52,559.605 239,579.5C 239.21,562.761 240.043,546.094 241.5,529.5C 242.642,523.907 244.475,518.574 247,513.5C 248.372,523.784 249.205,534.117 249.5,544.5C 250.643,560.381 251.976,576.048 253.5,591.5C 258.242,571.464 263.242,551.464 268.5,531.5C 269.542,525.661 271.042,519.994 273,514.5C 273.182,519.747 274.016,524.747 275.5,529.5C 276.622,545.974 278.122,562.307 280,578.5C 283.522,561.384 287.355,544.384 291.5,527.5C 292.479,521.392 293.979,515.392 296,509.5C 297.74,517.651 299.573,525.651 301.5,533.5C 304.4,550.984 307.9,567.984 312,584.5C 313.88,565.203 315.046,545.87 315.5,526.5C 318.383,520.403 321.549,514.403 325,508.5C 325.49,509.793 325.657,511.127 325.5,512.5C 325.816,535.418 326.816,558.085 328.5,580.5C 334.429,560.535 339.095,540.201 342.5,519.5C 343.327,516.868 344.16,514.202 345,511.5C 346.018,515.249 347.185,518.916 348.5,522.5C 349.88,529.351 351.88,536.018 354.5,542.5C 356.157,535.265 357.157,527.932 357.5,520.5C 357.338,518.473 357.505,516.473 358,514.5C 359.526,518.97 361.693,522.97 364.5,526.5C 364.828,537.679 364.495,548.679 363.5,559.5C 363.631,558.761 363.464,558.094 363,557.5C 359,560.833 355,564.167 351,567.5C 348.806,570.554 347.139,573.888 346,577.5C 342.499,596.308 331.666,602.474 313.5,596C 310.167,594.667 306.833,593.333 303.5,592C 302.031,588.164 299.364,586.497 295.5,587C 291.806,590.893 288.473,595.06 285.5,599.5C 283.476,601.358 281.309,603.025 279,604.5C 275.772,603.113 272.939,601.113 270.5,598.5C 267.349,601.15 264.349,603.984 261.5,607C 253.956,612.899 246.622,612.566 239.5,606C 234.822,601.321 230.489,596.321 226.5,591C 225.128,590.598 223.795,590.098 222.5,589.5C 218.422,591.414 214.755,593.914 211.5,597C 194.684,600.207 180.017,596.041 167.5,584.5C 161.559,579.39 156.059,573.724 151,567.5C 150.601,567.728 150.435,568.062 150.5,568.5C 149.504,555.01 149.171,541.344 149.5,527.5C 150.167,527.833 150.833,528.167 151.5,528.5C 154.948,539.512 158.615,550.512 162.5,561.5C 163.501,550.825 164.501,540.158 165.5,529.5C 167.448,531.32 168.448,533.654 168.5,536.5C 169.835,547.676 172.002,558.676 175,569.5C 175.5,556.171 175.667,542.837 175.5,529.5C 175.334,523.824 175.501,518.157 176,512.5C 177.506,515.907 179.006,519.24 180.5,522.5C 184.946,537.887 188.446,553.554 191,569.5C 191.5,557.171 191.667,544.838 191.5,532.5C 191.17,525.468 191.503,518.468 192.5,511.5C 194.521,512.855 196.188,514.521 197.5,516.5C 198.787,518.637 199.621,520.97 200,523.5C 202.088,539.661 204.755,555.661 208,571.5C 210.202,555.186 212.368,538.853 214.5,522.5C 215.752,514.982 216.919,507.315 218,499.5C 220.365,506.033 222.199,512.699 223.5,519.5 Z"/></g>
<g><path style="opacity:1" fill="#fe8002" d="M 175.5,529.5 C 175.667,542.837 175.5,556.171 175,569.5C 172.002,558.676 169.835,547.676 168.5,536.5C 171.194,534.473 173.527,532.139 175.5,529.5 Z"/></g>
<g><path style="opacity:1" fill="#fe7d02" d="M 165.5,529.5 C 164.501,540.158 163.501,550.825 162.5,561.5C 158.615,550.512 154.948,539.512 151.5,528.5C 154.157,528.17 156.824,527.837 159.5,527.5C 161.667,527.87 163.667,528.537 165.5,529.5 Z"/></g>
<g><path style="opacity:1" fill="#fd8804" d="M 357.5,520.5 C 357.157,527.932 356.157,535.265 354.5,542.5C 351.88,536.018 349.88,529.351 348.5,522.5C 351.096,523.265 353.763,523.599 356.5,523.5C 356.263,522.209 356.596,521.209 357.5,520.5 Z"/></g>
<g><path style="opacity:1" fill="#fe7c01" d="M 268.5,531.5 C 263.242,551.464 258.242,571.464 253.5,591.5C 251.976,576.048 250.643,560.381 249.5,544.5C 251.258,542.859 252.758,540.859 254,538.5C 255.63,532.582 257.797,526.916 260.5,521.5C 262.895,525.209 265.561,528.542 268.5,531.5 Z"/></g>
<g><path style="opacity:1" fill="#fe7b01" d="M 191.5,532.5 C 191.667,544.838 191.5,557.171 191,569.5C 188.446,553.554 184.946,537.887 180.5,522.5C 181.222,522.082 181.722,521.416 182,520.5C 185.411,524.399 188.578,528.399 191.5,532.5 Z"/></g>
<g><path style="opacity:1" fill="#fe7b01" d="M 241.5,529.5 C 240.043,546.094 239.21,562.761 239,579.5C 233.52,559.605 228.353,539.605 223.5,519.5C 227.014,518.216 230.347,516.55 233.5,514.5C 236.007,522.702 238.007,531.036 239.5,539.5C 240.167,536.023 240.834,532.689 241.5,529.5 Z"/></g>
<g><path style="opacity:1" fill="#fe8002" d="M 325.5,512.5 C 330.586,516.209 336.252,518.542 342.5,519.5C 339.095,540.201 334.429,560.535 328.5,580.5C 326.816,558.085 325.816,535.418 325.5,512.5 Z"/></g>
<g><path style="opacity:1" fill="#fe7e01" d="M 315.5,526.5 C 315.046,545.87 313.88,565.203 312,584.5C 307.9,567.984 304.4,550.984 301.5,533.5C 305.268,526.398 308.768,519.065 312,511.5C 312.851,516.705 314.018,521.705 315.5,526.5 Z"/></g>
<g><path style="opacity:1" fill="#fe7b01" d="M 291.5,527.5 C 287.355,544.384 283.522,561.384 280,578.5C 278.122,562.307 276.622,545.974 275.5,529.5C 276.765,523.568 278.265,517.568 280,511.5C 283.61,517.077 287.443,522.41 291.5,527.5 Z"/></g>
<g><path style="opacity:0.985" fill="#030334" d="M 1478.5,588.5 C 1479.22,588.918 1479.72,589.584 1480,590.5C 1483.67,590.167 1487.33,589.833 1491,589.5C 1492.82,590.749 1492.66,591.915 1490.5,593C 1491.72,595.096 1492.55,594.929 1493,592.5C 1493.45,594.929 1494.28,595.096 1495.5,593C 1493.34,591.915 1493.18,590.749 1495,589.5C 1497.67,589.5 1500.33,589.5 1503,589.5C 1503.67,590.833 1504.33,592.167 1505,593.5C 1505.67,590.833 1506.33,590.833 1507,593.5C 1508.04,592.377 1508.71,591.044 1509,589.5C 1510.04,590.244 1510.54,591.244 1510.5,592.5C 1508.62,601.321 1505.45,609.654 1501,617.5C 1499.05,620.42 1496.89,623.087 1494.5,625.5C 1496.09,621.835 1498.09,618.335 1500.5,615C 1500,614.5 1499.5,614 1499,613.5C 1498.37,617.127 1496.2,618.96 1492.5,619C 1481.02,619.2 1470.19,619.367 1460,619.5C 1459.17,619.333 1458.33,619.167 1457.5,619C 1460.95,618.108 1463.95,616.442 1466.5,614C 1463.64,613.915 1460.97,614.749 1458.5,616.5C 1457.89,616.376 1457.56,616.043 1457.5,615.5C 1460.76,613.784 1463.92,611.784 1467,609.5C 1468.26,607.321 1469.76,605.321 1471.5,603.5C 1473.68,598.204 1476.02,593.204 1478.5,588.5 Z"/></g>
<g><path style="opacity:0.94" fill="#0b0d56" d="M 1455.5,616.5 C 1452.98,617.973 1450.15,618.64 1447,618.5C 1440.98,618.031 1434.98,617.364 1429,616.5C 1426.97,617.732 1425.64,617.398 1425,615.5C 1422.06,619.704 1419.56,624.037 1417.5,628.5C 1418.23,623.126 1420.23,618.293 1423.5,614C 1431.37,615.279 1439.37,616.446 1447.5,617.5C 1450.18,617.163 1452.84,616.83 1455.5,616.5 Z"/></g>
<g><path style="opacity:0.988" fill="#020020" d="M 1494.5,625.5 C 1491.87,629.797 1488.54,633.463 1484.5,636.5C 1481.6,638.12 1478.6,639.453 1475.5,640.5C 1466.85,643.545 1457.85,645.212 1448.5,645.5C 1439.05,644.814 1429.72,643.481 1420.5,641.5C 1418.86,641.714 1417.36,641.38 1416,640.5C 1415.71,637.47 1415.55,634.636 1415.5,632C 1417.24,630.917 1417.91,629.75 1417.5,628.5C 1419.56,624.037 1422.06,619.704 1425,615.5C 1425.64,617.398 1426.97,617.732 1429,616.5C 1434.98,617.364 1440.98,618.031 1447,618.5C 1450.15,618.64 1452.98,617.973 1455.5,616.5C 1456.17,616.167 1456.83,615.833 1457.5,615.5C 1457.56,616.043 1457.89,616.376 1458.5,616.5C 1460.97,614.749 1463.64,613.915 1466.5,614C 1463.95,616.442 1460.95,618.108 1457.5,619C 1458.33,619.167 1459.17,619.333 1460,619.5C 1470.19,619.367 1481.02,619.2 1492.5,619C 1496.2,618.96 1498.37,617.127 1499,613.5C 1499.5,614 1500,614.5 1500.5,615C 1498.09,618.335 1496.09,621.835 1494.5,625.5 Z"/></g>
<g><path style="opacity:0.09" fill="#160c79" d="M 1475.5,640.5 C 1473.91,642.234 1471.91,643.4 1469.5,644C 1464.24,644.918 1459.07,646.084 1454,647.5C 1448.18,648.041 1442.18,647.374 1436,645.5C 1434.01,646.229 1432.01,645.896 1430,644.5C 1429.23,644.645 1428.56,644.978 1428,645.5C 1425.15,644.622 1422.65,643.289 1420.5,641.5C 1429.72,643.481 1439.05,644.814 1448.5,645.5C 1457.85,645.212 1466.85,643.545 1475.5,640.5 Z"/></g>
</svg>
