<?xml version="1.0" encoding="UTF-8"?>
<!DOCTYPE svg PUBLIC "-//W3C//DTD SVG 1.1//EN" "http://www.w3.org/Graphics/SVG/1.1/DTD/svg11.dtd">
<svg xmlns="http://www.w3.org/2000/svg" version="1.1" width="3975px" height="2500px" style="shape-rendering:geometricPrecision; text-rendering:geometricPrecision; image-rendering:optimizeQuality; fill-rule:evenodd; clip-rule:evenodd" xmlns:xlink="http://www.w3.org/1999/xlink">
<g><path style="opacity:0.998" fill="#212b37" d="M 2937.5,2499.5 C 2936.5,2499.5 2935.5,2499.5 2934.5,2499.5C 2604.25,2411.15 2273.92,2322.65 1943.5,2234C 1894.3,2148.3 1845.3,2062.46 1796.5,1976.5C 1784.31,1975.8 1773.15,1975.47 1763,1975.5C 1720.67,1976.17 1678.33,1976.83 1636,1977.5C 1590.53,1977.61 1544.03,1977.44 1496.5,1977C 1254.32,1735.65 1012.32,1494.15 770.5,1252.5C 1012.68,1010.82 1255.01,769.32 1497.5,528C 1564.69,527.814 1633.19,528.314 1703,529.5C 1732.86,529.713 1764.03,529.38 1796.5,528.5C 1845.37,442.585 1894.37,356.752 1943.5,271C 2274.43,182.727 2605.26,94.2272 2936,5.5C 2938.92,12.5942 2941.25,19.9275 2943,27.5C 3029.68,350.549 3116.51,673.549 3203.5,996.5C 3152.95,1081.88 3102.62,1167.38 3052.5,1253C 3102.7,1338.57 3153.03,1424.07 3203.5,1509.5C 3114.22,1839.35 3025.55,2169.35 2937.5,2499.5 Z M 2577.5,377.5 C 2578.24,377.369 2578.91,377.536 2579.5,378C 2434.12,627.921 2289.12,878.088 2144.5,1128.5C 1853.83,1129.67 1563.17,1129.83 1272.5,1129C 1455.58,943.585 1638.25,757.918 1820.5,572C 2072.99,507.294 2325.33,442.461 2577.5,377.5 Z M 2791.5,501.5 C 2792.59,501.62 2793.25,502.287 2793.5,503.5C 2863.35,753.217 2933.35,1002.88 3003.5,1252.5C 2933.3,1503.31 2862.8,1753.97 2792,2004.5C 2646.9,1753.96 2502.06,1503.29 2357.5,1252.5C 2501.92,1001.99 2646.59,751.652 2791.5,501.5 Z M 1272.5,1376.5 C 1562.67,1375.5 1853,1375.17 2143.5,1375.5C 2288.74,1625.64 2433.74,1875.98 2578.5,2126.5C 2578.17,2126.83 2577.83,2127.17 2577.5,2127.5C 2324.84,2062.67 2072.17,1997.83 1819.5,1933C 1637.3,1747.3 1454.97,1561.8 1272.5,1376.5 Z"/></g>
<g><path style="opacity:0.561" fill="#212b36" d="M 2143.5,1375.5 C 1853,1375.17 1562.67,1375.5 1272.5,1376.5C 1271.96,1376.44 1271.62,1376.11 1271.5,1375.5C 1416.83,1375.17 1562.17,1374.83 1707.5,1374.5C 1853,1374.5 1998.33,1374.83 2143.5,1375.5 Z"/></g>
</svg>
