<?xml version="1.0" encoding="UTF-8"?>
<!DOCTYPE svg PUBLIC "-//W3C//DTD SVG 1.1//EN" "http://www.w3.org/Graphics/SVG/1.1/DTD/svg11.dtd">
<svg xmlns="http://www.w3.org/2000/svg" version="1.1" width="1903px" height="1197px" style="shape-rendering:geometricPrecision; text-rendering:geometricPrecision; image-rendering:optimizeQuality; fill-rule:evenodd; clip-rule:evenodd" xmlns:xlink="http://www.w3.org/1999/xlink">
<g><path style="opacity:1" fill="#855fc5" d="M 1298.5,-0.5 C 1301.17,-0.5 1303.83,-0.5 1306.5,-0.5C 1403.42,40.5371 1500.59,81.2038 1598,121.5C 1598.67,438.5 1598.67,755.5 1598,1072.5C 1498.96,1113.56 1400.13,1154.9 1301.5,1196.5C 1299.5,1196.5 1297.5,1196.5 1295.5,1196.5C 996.635,1095.6 697.635,994.767 398.5,894C 407.869,894.337 417.202,895.337 426.5,897C 717.156,940.308 1007.82,983.475 1298.5,1026.5C 1298.5,684.167 1298.5,341.833 1298.5,-0.5 Z"/></g>
<g><path style="opacity:1" fill="#855fc5" d="M 981.5,172.5 C 983.199,172.34 984.866,172.506 986.5,173C 1040.17,195.833 1093.83,218.667 1147.5,241.5C 1148.5,420.165 1148.83,598.832 1148.5,777.5C 1094.42,800.039 1040.42,822.872 986.5,846C 984.833,846.667 983.167,846.667 981.5,846C 890.333,755.5 799.167,665 708,574.5C 652.768,616.532 597.268,658.198 541.5,699.5C 518.833,691.833 496.167,684.167 473.5,676.5C 472.167,565.167 472.167,453.833 473.5,342.5C 496.167,334.833 518.833,327.167 541.5,319.5C 597.268,360.802 652.768,402.468 708,444.5C 799.368,353.966 890.534,263.299 981.5,172.5 Z M 981.5,368.5 C 982.666,462.332 982.832,556.332 982,650.5C 920.091,602.804 857.591,555.971 794.5,510C 857.26,463.299 919.594,416.132 981.5,368.5 Z M 542.5,412.5 C 575.327,445.16 608.327,477.66 641.5,510C 608.667,542.167 575.833,574.333 543,606.5C 542.5,541.834 542.333,477.168 542.5,412.5 Z"/></g>
</svg>
